<svg width="777" height="700" viewBox="0 0 777 700" fill="none" xmlns="http://www.w3.org/2000/svg">
<circle cx="388.244" cy="346.244" r="330" fill="#FBCE51"/>
<g style="mix-blend-mode:overlay">
<path d="M530.78 629.3L530.388 628.482L531.885 627.457L527.706 619.106L527.373 621.869L525.468 630.118L525.652 630.574L527.211 630.076L527.603 630.894L523.006 633.227L522.614 632.409L523.87 631.523L518.723 621.079L517.259 621.603L516.867 620.785L521.559 618.477L521.951 619.295L520.6 620.156L524.849 628.628L525.131 626.055L527.087 617.616L526.739 617.013L525.059 617.582L524.667 616.764L529.359 614.456L529.751 615.274L528.4 616.134L533.547 626.578L534.986 626.149L535.378 626.967L530.78 629.3Z" fill="black"/>
<path d="M519.405 634.502C518.897 634.876 518.536 635.084 518.174 635.293C517.813 635.502 517.451 635.711 517.115 635.824C515.72 636.469 514.522 636.759 513.546 636.599C512.57 636.44 511.886 635.951 511.45 634.918C511.084 634.004 511.002 633.168 511.327 632.338C511.651 631.508 512.235 630.85 512.983 630.337C511.95 630.773 511.018 630.829 510.163 630.6C509.333 630.276 508.769 629.717 508.377 628.899C507.802 627.625 507.772 626.598 508.242 625.604C508.712 624.609 509.753 623.768 511.389 622.984C512.086 622.661 512.758 622.434 513.284 622.371C513.836 622.213 514.362 622.151 514.672 622.132C514.983 622.113 515.199 622.069 515.294 622.095L516.291 625.214L515.473 625.606L513.98 623.576C513.289 623.493 512.522 623.695 511.489 624.131C510.696 624.428 510.258 624.922 510.08 625.587C509.902 626.252 510.008 626.994 510.375 627.907C510.697 628.604 511.166 629.137 511.805 629.411C512.445 629.684 513.282 629.602 514.315 629.166L515.47 628.661L515.931 629.599L514.898 630.035C514.441 630.219 514.054 630.522 513.642 630.921C513.324 631.345 513.102 631.795 512.975 632.27C512.942 632.771 512.98 633.392 513.232 633.969C513.529 634.762 514.023 635.199 514.593 635.352C515.163 635.505 515.81 635.373 516.603 635.076C517.085 634.797 517.541 634.614 517.833 634.285C518.125 633.956 518.296 633.696 518.347 633.506L517.994 631.782L519.054 631.251L520.394 633.851C520.274 633.92 519.912 634.129 519.405 634.502Z" fill="black"/>
<path d="M504.181 639.998L505.69 639.689L506.056 640.602L503.679 641.493C503.317 641.702 502.766 641.859 502.189 642.112C501.612 642.365 501.25 642.574 501.009 642.713C499.424 643.307 498.156 643.476 497.301 643.247C496.446 643.018 495.787 642.434 495.446 641.426C495.149 640.633 495.068 639.797 495.367 639.062C495.571 638.302 496.154 637.643 496.877 637.226C495.749 637.636 494.792 637.787 493.962 637.463C493.132 637.139 492.473 636.555 492.132 635.547C491.627 634.393 491.717 633.297 492.308 632.233C492.898 631.169 494.059 630.257 495.98 629.55C496.437 629.367 496.773 629.253 497.204 629.165C498.092 628.893 498.669 628.641 498.884 628.596L501.167 627.68L501.438 628.568L500.018 629.308L504.181 639.998ZM496.277 630.343C495.123 630.848 494.375 631.361 493.981 632.07C493.587 632.779 493.694 633.521 493.965 634.408C494.332 635.322 494.8 635.855 495.44 636.128C496.08 636.401 496.916 636.32 497.95 635.884C499.104 635.378 499.871 635.176 500.233 634.967L498.268 629.756C497.862 629.749 497.285 630.002 496.277 630.343ZM499.54 636.411L498.627 636.778C497.835 637.075 497.302 637.543 497.028 638.183C496.755 638.823 496.767 639.539 497.159 640.357C497.456 641.15 497.924 641.682 498.469 641.93C499.014 642.178 499.85 642.097 500.884 641.661C501.34 641.477 501.702 641.269 502.158 641.085L502.52 640.877L500.669 636.001C500.428 636.14 500.092 636.254 499.54 636.411Z" fill="black"/>
<path d="M489.343 646.717L487.422 647.425L479.012 636.615L477.84 636.81L477.568 635.923L482.273 634.331L482.544 635.219L481.149 635.864L482.851 638.255L488.012 636.48L487.965 633.616L486.361 633.899L486.089 633.011L490.337 631.603L490.609 632.491L489.55 633.022L489.343 646.717ZM487.356 644.25L488.311 645.626L488.174 643.858L488.017 637.602L483.528 639.15L487.356 644.25Z" fill="black"/>
<path d="M474.727 637.402C475.868 637.708 476.742 638.248 477.514 639.168C478.286 640.087 478.912 641.172 479.246 642.586C479.606 643.904 479.68 645.147 479.444 646.408C479.208 647.668 478.643 648.637 477.818 649.435C476.993 650.232 476.004 650.884 474.78 651.269C473.893 651.541 472.72 651.736 471.383 651.785L470.762 651.822L470.005 648.564L471.229 648.179L472.386 650.322C472.576 650.373 472.956 650.475 473.362 650.482C473.767 650.488 474.319 650.331 474.965 650.198C475.732 649.996 476.36 649.554 476.824 648.965C477.287 648.376 477.611 647.546 477.65 646.64C477.69 645.734 477.589 644.586 477.274 643.483C476.958 642.38 476.522 641.347 475.915 640.573C475.307 639.799 474.674 639.12 473.94 638.821C473.205 638.522 472.324 638.388 471.436 638.66C470.79 638.792 470.308 639.07 470.067 639.209C469.826 639.349 469.534 639.678 469.363 639.937L469.138 641.914L467.966 642.11L467.652 639.479C467.867 639.435 468.229 639.226 468.711 638.948C469.098 638.644 469.459 638.436 469.916 638.252C470.277 638.044 470.829 637.886 471.381 637.728C472.44 637.197 473.587 637.097 474.727 637.402Z" fill="black"/>
<path d="M460.64 651.962C460.265 652.982 459.7 653.951 459.021 654.584C458.222 655.286 457.378 655.773 456.421 655.924C455.223 656.214 454.127 656.124 453.202 655.775C452.277 655.425 451.428 654.79 450.751 653.896C450.074 653.001 449.543 651.942 449.304 650.554C448.995 649.045 448.946 647.708 449.157 646.542C449.393 645.281 449.958 644.312 450.688 643.489C451.417 642.666 452.356 642.205 453.459 641.889C454.657 641.599 455.779 641.594 456.799 641.969C457.819 642.344 458.572 642.954 459.275 643.753C459.952 644.648 460.483 645.707 460.722 647.095L463.644 646.452L462.421 641.133L460.843 641.321L460.667 640.459L465.675 639.255L465.851 640.117L464.387 640.641L467.06 651.951L468.518 651.832L468.694 652.694L463.807 653.829L463.63 652.967L465.095 652.443L463.96 647.555L461.012 648.293C461.036 649.725 460.92 650.917 460.64 651.962ZM458.573 652.834C458.999 651.624 459.001 650.097 458.535 648.037C458.087 646.287 457.442 644.892 456.549 644.041C455.657 643.191 454.637 642.816 453.344 643.081C452.145 643.371 451.441 644.099 451.04 645.214C450.64 646.329 450.708 647.976 451.174 650.037C451.622 651.786 452.172 653.156 453.064 654.006C453.931 654.952 454.977 655.232 456.08 654.916C457.348 654.747 458.147 654.044 458.573 652.834Z" fill="black"/>
<path d="M439.366 651.151C438.803 650.592 437.979 649.862 437.112 648.917C436.479 648.238 436.106 647.731 435.777 647.439C435.448 647.147 435.188 646.975 434.998 646.925L434.307 646.841L434.131 645.979L436.381 645.564C436.692 645.545 437.046 645.742 437.445 646.154C437.844 646.567 438.477 647.246 439.154 648.14C439.996 649.18 440.629 649.859 441.192 650.418C441.66 650.951 442.11 651.173 442.541 651.085L443.714 650.89L442.776 645.647L441.128 645.715L440.951 644.853L445.978 643.959L446.129 644.916L444.69 645.345L446.717 656.787L448.244 656.789L448.395 657.746L443.489 658.571L443.389 657.423L444.854 656.899L443.941 651.562L442.337 651.845L439.516 657.812L441.069 657.718L441.22 658.676L436.719 659.507L436.568 658.55L438.008 658.12L441.07 652.015C440.569 651.982 439.955 651.614 439.366 651.151Z" fill="black"/>
<path d="M431.012 646.977C432.006 647.447 432.734 648.151 433.265 649.21C433.822 650.174 434.207 651.398 434.446 652.786C434.685 654.174 434.544 655.461 434.118 656.671C433.718 657.786 433.057 658.729 432.258 659.432C431.363 660.109 430.425 660.57 429.157 660.74C427.243 661.042 425.627 660.609 424.501 659.492C423.374 658.375 422.564 656.834 422.339 654.635C422.125 653.152 422.266 651.865 422.667 650.75C423.093 649.54 423.728 648.692 424.553 647.894C425.447 647.217 426.48 646.781 427.653 646.586C428.921 646.417 430.017 646.507 431.012 646.977ZM431.785 657.777C432.306 656.592 432.498 655.116 432.247 653.012C432.04 651.123 431.49 649.753 430.648 648.713C429.807 647.672 428.787 647.297 427.614 647.492C426.441 647.687 425.572 648.269 425.051 649.454C424.53 650.638 424.313 652.21 424.589 654.219C424.796 656.108 425.346 657.478 426.213 658.423C426.985 659.343 427.98 659.813 429.247 659.644C430.369 659.639 431.263 658.961 431.785 657.777Z" fill="black"/>
<path d="M419.638 660.532L421.14 660.629L421.196 661.56L418.686 661.805C418.281 661.798 417.729 661.956 417.108 661.993C416.461 662.125 416.056 662.118 415.84 662.162C414.167 662.325 412.881 662.184 412.102 661.67C411.323 661.156 410.905 660.433 410.78 659.381C410.698 658.544 410.928 657.689 411.296 657.074C411.664 656.46 412.413 655.948 413.3 655.676C412.153 655.776 411.177 655.616 410.398 655.102C409.619 654.588 409.228 653.77 409.172 652.838C409.097 651.596 409.377 650.551 410.227 649.658C411.078 648.765 412.447 648.216 414.526 648.06C414.957 647.972 415.363 647.978 415.864 648.011C416.795 647.955 417.416 647.917 417.606 647.968L420.116 647.724L420.172 648.656L418.664 648.965L419.638 660.532ZM414.652 649.112C413.409 649.186 412.496 649.553 412.033 650.142C411.475 650.705 411.271 651.465 411.422 652.423C411.478 653.354 411.8 654.052 412.32 654.395C412.839 654.738 413.694 654.967 414.746 654.841C415.989 654.767 416.825 654.685 417.161 654.572L416.705 649.051C416.325 648.949 415.704 648.986 414.652 649.112ZM416.209 655.844L415.157 655.97C414.32 656.051 413.623 656.374 413.28 656.893C412.937 657.412 412.733 658.172 412.815 659.009C412.896 659.846 413.123 660.518 413.643 660.861C414.162 661.203 414.922 661.407 415.974 661.282C416.405 661.193 416.906 661.226 417.363 661.043L417.794 660.954L417.356 655.744C417.046 655.763 416.735 655.782 416.209 655.844Z" fill="black"/>
<path d="M390.286 663.26L390.23 662.328L391.833 662.045L391.48 650.44L389.693 650.267L389.637 649.336L394.865 649.209L394.921 650.14L393.343 650.329L393.671 662.028L399.616 661.89L399.288 650.19L397.596 650.042L397.54 649.11L402.769 648.984L402.825 649.915L401.341 650.129L401.695 661.734L403.267 661.951L403.322 662.883L390.286 663.26Z" fill="black"/>
<path d="M385.878 650.06C386.726 650.695 387.429 651.494 387.839 652.623C388.275 653.656 388.445 654.924 388.469 656.356C388.397 657.763 388.161 659.024 387.571 660.088C386.98 661.152 386.25 661.975 385.286 662.532C384.322 663.088 383.219 663.404 382.097 663.409C380.164 663.4 378.72 662.708 377.714 661.521C376.733 660.24 376.26 658.585 376.25 656.342C376.226 654.909 376.583 653.579 377.173 652.515C377.764 651.451 378.519 650.533 379.483 649.976C380.447 649.42 381.55 649.104 382.767 649.125C383.984 649.145 385.029 649.425 385.878 650.06ZM385.123 660.858C385.809 659.82 386.216 658.299 386.251 656.271C386.234 654.433 385.925 652.925 385.299 651.84C384.673 650.756 383.704 650.19 382.487 650.17C381.27 650.15 380.306 650.706 379.621 651.745C378.935 652.783 378.502 654.399 378.468 656.427C378.459 658.36 378.698 659.748 379.419 660.858C380.046 661.942 381.015 662.507 382.231 662.528C383.404 662.333 384.343 661.871 385.123 660.858Z" fill="black"/>
<path d="M370.371 653.952C370.735 652.216 371.161 651.006 371.795 650.157C372.113 649.733 372.405 649.404 372.766 649.195C373.128 648.986 373.559 648.898 373.964 648.905C374.56 648.963 374.966 648.97 375.251 649.046L375.249 650.573C374.964 650.497 374.463 650.465 373.868 650.407C373.677 650.356 373.462 650.4 373.221 650.539C372.98 650.678 372.834 650.843 372.688 651.007C371.59 652.445 370.991 655.442 370.7 659.947L370.603 661.449L372.745 661.82L372.706 662.726L361.882 662.066L361.921 661.16L363.689 661.023L364.457 649.413L362.601 649.119L362.64 648.213L368.337 648.619L368.298 649.526L366.339 649.612L365.571 661.222L369.386 661.429L369.534 659.737C369.809 657.57 370.033 655.593 370.371 653.952Z" fill="black"/>
<path d="M358.493 660.649L360.013 661.057L359.879 661.937L350.374 660.918L350.447 657.984L351.544 658.074L351.871 659.893L356.49 660.52L357.08 655.279L354.006 654.965L353.599 656.486L352.598 656.421L353.027 652.156L354.029 652.221L354.096 653.869L357.144 654.278L357.715 648.727L352.424 648.328L351.217 650.551L350.127 650.055L350.993 646.824L361.284 647.952L361.15 648.833L359.623 648.831L358.493 660.649Z" fill="black"/>
<path d="M343.057 658.957L346.225 659.297L347.434 655.547L348.6 655.757L347.586 660.68L336.041 658.911L336.554 653.956L337.72 654.166L337.772 658.152L340.985 658.708L342.684 647.042L340.093 646.45L340.227 645.569L347.273 646.642L347.139 647.523L344.731 647.387L343.057 658.957Z" fill="black"/>
<path d="M329.727 649.784L330.608 649.918C330.944 649.804 331.356 649.405 331.699 648.886C332.042 648.367 332.626 647.708 333.14 646.929C333.654 646.151 334.118 645.562 334.435 645.137C334.752 644.713 334.993 644.574 335.184 644.625L337.705 645.097L337.571 645.978L336.83 646.085C336.614 646.129 336.398 646.173 336.107 646.502C335.84 646.736 335.402 647.23 334.939 647.819C334.33 648.572 333.866 649.161 333.454 649.56C333.016 650.054 332.654 650.262 332.198 650.446C333.002 650.865 333.566 651.423 333.888 652.121C334.21 652.818 334.292 653.655 334.132 654.631C333.845 656.082 333.185 657.025 332.272 657.392C331.264 657.733 330.022 657.807 328.381 657.47C328 657.368 327.62 657.266 327.05 657.113C326.48 656.96 326.005 656.833 325.72 656.757L323.103 656.259L323.237 655.378L324.834 655.501L327.078 644.083L325.393 643.53L325.527 642.649L330.951 643.695L330.817 644.575L329.03 644.402L328.137 649.256L329.727 649.784ZM327.184 656.232C327.754 656.385 328.23 656.512 328.61 656.614C329.585 656.774 330.302 656.762 330.904 656.414C331.507 656.066 331.875 655.452 332.06 654.381C332.22 653.405 332.138 652.569 331.695 651.941C331.253 651.313 330.638 650.944 329.688 650.69C328.712 650.53 328.047 650.352 327.736 650.371L326.639 655.984L327.184 656.232Z" fill="black"/>
<path d="M316.603 653.906L319.79 654.556L321.284 650.882L322.519 651.213L321.031 656.009L309.74 653.29L310.659 648.341L311.799 648.647L311.446 652.626L314.582 653.466L317.257 641.961L314.717 641.178L314.946 640.323L321.935 641.992L321.705 642.847L319.253 642.495L316.603 653.906Z" fill="black"/>
<path d="M304.599 638.263C305.397 639.088 305.833 640.122 306.028 641.294C306.223 642.467 306.082 643.754 305.7 645.179C305.344 646.509 304.633 647.643 303.808 648.441C302.957 649.333 301.898 649.864 300.795 650.18C299.597 650.47 298.501 650.38 297.265 650.049C296.315 649.794 295.321 649.324 294.066 648.682L293.522 648.435L294.673 645.28L295.908 645.611L295.677 647.994C295.816 648.235 296.076 648.406 296.431 648.603C296.785 648.8 297.33 649.048 297.9 649.2C298.66 649.404 299.377 649.392 300.144 649.19C300.816 648.963 301.564 648.451 302.078 647.672C302.688 646.918 303.158 645.924 303.463 644.783C303.769 643.643 303.954 642.572 303.924 641.545C303.893 640.519 303.622 639.631 303.204 638.908C302.787 638.185 302.103 637.696 301.153 637.442C300.487 637.263 300.012 637.136 299.607 637.129C299.201 637.122 298.865 637.236 298.624 637.375L297.405 638.882L296.316 638.387L297.479 635.948C297.764 636.024 298.169 636.031 298.67 636.063C299.171 636.096 299.576 636.103 299.982 636.109C300.387 636.116 300.958 636.269 301.528 636.422C302.763 636.753 303.827 637.344 304.599 638.263Z" fill="black"/>
<path d="M286.16 646.258L286.484 645.429L288.315 645.817L291.4 636.967L289.224 638.625L282.013 643.11L281.885 643.585L283.425 644.303L283.1 645.133L278.26 643.429L278.585 642.599L280.036 642.886L283.801 631.876L282.357 631.183L282.681 630.353L287.616 632.083L287.291 632.913L285.65 632.575L282.541 641.52L284.596 639.932L292.023 635.403L292.201 634.738L290.567 633.994L290.891 633.164L295.826 634.894L295.502 635.724L293.956 635.411L290.191 646.422L291.54 647.089L291.215 647.919L286.16 646.258Z" fill="black"/>
<path d="M267.067 639.207L268.72 634.557L269.93 634.983L269.032 638.715L272.776 640.329L277.136 629.377L274.153 627.966L274.477 627.136L281.306 629.781L280.982 630.611L278.986 630.076L274.771 640.864L276.545 641.848L276.221 642.678L267.067 639.207Z" fill="black"/>
<path d="M264.528 636.897L265.732 637.729L265.407 638.559L260.764 636.5L261.089 635.67L262.609 636.078L264.643 631.53L258.625 628.899L256.591 633.447L257.89 634.304L257.565 635.134L253.017 633.1L253.342 632.27L254.767 632.652L259.457 621.992L258.133 621.23L258.458 620.4L263.006 622.433L262.681 623.263L261.186 622.761L258.93 627.758L264.948 630.389L267.204 625.392L265.785 624.604L266.109 623.774L270.847 625.859L270.523 626.688L269.123 626.211L264.528 636.897Z" fill="black"/>
<path d="M246.817 630.012L245.018 629.123L246.726 615.524L245.783 614.864L246.202 614.06L250.604 616.258L250.185 617.062L248.69 616.56L248.236 619.392L253.088 621.813L255.081 619.698L253.687 618.816L254.107 618.011L258.059 619.987L257.64 620.791L256.525 620.391L246.817 630.012ZM247.061 626.818L246.723 628.46L247.891 627.143L252.263 622.61L248.051 620.463L247.061 626.818Z" fill="black"/>
<path d="M239.507 616.239C240.579 614.896 241.55 613.934 242.419 613.352C242.901 613.074 243.237 612.96 243.668 612.872C244.074 612.879 244.454 612.981 244.904 613.203C245.448 613.451 245.778 613.743 246.037 613.914L245.465 615.289C245.206 615.117 244.851 614.92 244.237 614.552C244.072 614.406 243.882 614.355 243.666 614.399C243.451 614.443 243.235 614.487 242.994 614.627C241.453 615.436 239.575 617.886 237.288 621.857L236.526 623.181L238.318 624.476L237.899 625.28L228.513 620.015L228.932 619.211L230.592 619.859L236.276 609.669L234.718 608.64L235.138 607.836L240.198 610.618L239.779 611.422L238.049 610.653L232.391 620.749L235.678 622.546L236.491 621.032C237.38 619.234 238.434 617.581 239.507 616.239Z" fill="black"/>
<path d="M211.458 609.538L211.972 608.759L213.607 609.502L219.81 599.655L218.468 598.582L218.982 597.803L223.586 600.768L223.072 601.547L221.533 600.829L215.329 610.677L216.671 611.75L216.157 612.528L211.458 609.538ZM224.271 611.138C222.973 610.28 222.201 609.36 221.86 608.352C221.519 607.344 221.704 606.273 222.415 605.14C223.151 603.911 224.141 603.26 225.314 603.065C226.486 602.87 227.722 603.201 229.045 603.963C229.21 604.109 229.4 604.16 229.565 604.306C229.729 604.452 229.894 604.598 230.084 604.648C230.673 605.112 231.192 605.455 231.616 605.772L233.788 607.169L233.274 607.948L231.83 607.255L225.626 617.103L226.779 618.125L226.264 618.903L221.73 616.059L222.244 615.28L223.974 616.049L226.278 612.388L224.271 611.138ZM229.614 605.643C229.449 605.497 229.19 605.325 228.74 605.103C227.866 604.563 227.011 604.334 226.244 604.536C225.476 604.738 224.823 605.276 224.163 606.219C223.623 607.093 223.419 607.854 223.621 608.621C223.823 609.388 224.361 610.041 225.235 610.581L226.888 611.635L230.247 606.322C230.038 605.96 229.873 605.814 229.614 605.643Z" fill="black"/>
<path d="M205.02 603.535L206.052 604.626L205.538 605.405L201.46 602.377L201.974 601.598L203.393 602.386L206.421 598.308L201.14 594.448L198.112 598.526L199.143 599.617L198.629 600.396L194.646 597.394L195.161 596.615L196.51 597.282L203.397 587.923L202.34 586.927L202.854 586.148L206.932 589.176L206.418 589.955L205.094 589.193L201.895 593.53L207.176 597.39L210.375 593.052L209.153 591.91L209.668 591.131L213.841 594.184L213.326 594.963L212.003 594.201L205.02 603.535Z" fill="black"/>
<path d="M189.182 593.077L187.606 591.738L192.191 578.809L191.419 577.889L192.003 577.23L195.865 580.302L195.255 581.056L193.957 580.199L192.934 582.878L197.195 586.363L199.656 584.781L198.529 583.665L199.113 583.006L202.551 585.761L201.967 586.419L200.903 585.829L189.182 593.077ZM190.187 590.087L189.564 591.652L190.966 590.602L196.18 587.109L192.508 584.088L190.187 590.087Z" fill="black"/>
<path d="M178.079 582.056L179.389 583.629L178.805 584.287L175.14 580.861L178.901 572.905L180.083 570.777L178.078 572.175L170.487 576.558L166.891 573.252L167.475 572.594L169.172 573.863L175.99 564.384L174.914 563.077L175.498 562.419L179.398 566.112L178.814 566.77L177.446 565.793L172.393 572.486L170.197 575.36L172.607 573.969L181.593 568.941L182.486 569.791L178.641 578.438L177.034 581.776L179.724 579.339L186.024 573.693L184.758 572.336L185.342 571.677L188.938 574.983L188.354 575.642L187.081 574.69L178.079 582.056Z" fill="black"/>
<path d="M161.751 568.106L160.321 566.602L166.445 554.391L165.793 553.401L166.472 552.768L169.896 556.334L169.218 556.967L167.945 556.015L166.541 558.593L170.39 562.476L172.99 561.136L172.009 559.854L172.688 559.221L175.809 562.4L175.13 563.033L174.186 562.373L161.751 568.106ZM163.136 565.218L162.323 566.732L163.864 565.922L169.521 563.058L166.166 559.613L163.136 565.218Z" fill="black"/>
<path d="M155.544 559.72L156.335 560.951L155.656 561.584L154.017 559.719C153.688 559.427 153.384 559.04 153.055 558.748C152.561 558.31 152.092 557.777 151.694 557.364C150.523 556.032 149.922 554.853 149.892 553.826C149.861 552.799 150.401 551.925 151.372 550.963C152.146 550.356 152.894 549.843 153.731 549.762C154.593 549.585 155.474 549.719 156.303 550.044C157.133 550.368 157.887 550.977 158.589 551.777C158.823 552.043 159.058 552.31 159.292 552.576C159.526 552.842 159.665 553.083 159.76 553.109L162.837 550.368L161.249 548.313L161.928 547.68L166.004 552.235L165.325 552.868L164.173 551.847L155.544 559.72ZM157.885 552.505C157.252 551.826 156.448 551.406 155.662 551.298C154.876 551.189 153.843 551.625 152.872 552.587C152.072 553.29 151.679 553.999 151.69 554.715C151.702 555.432 152.094 556.25 152.797 557.049C153.031 557.315 153.36 557.607 153.689 557.899C153.854 558.045 154.019 558.191 154.088 558.312L159.03 553.932C158.796 553.666 158.423 553.158 157.885 552.505Z" fill="black"/>
<path d="M155.844 541.874C156.039 543.047 155.854 544.118 155.264 545.182C154.768 546.271 153.892 547.259 152.826 548.195C151.761 549.132 150.606 549.638 149.434 549.833C148.261 550.028 147.044 550.007 145.955 549.512C144.84 549.111 143.896 548.451 143.055 547.411C142.447 546.637 141.796 545.647 141.195 544.468L140.942 543.891L143.625 541.86L144.397 542.779L142.887 544.615C142.931 544.831 142.95 545.142 143.133 545.598C143.342 545.96 143.62 546.442 143.993 546.949C144.531 547.602 145.145 547.971 145.906 548.175C146.666 548.378 147.503 548.297 148.39 548.025C149.278 547.754 150.242 547.197 151.162 546.425C152.082 545.653 152.786 544.925 153.326 544.051C153.865 543.177 154.19 542.347 154.203 541.536C154.217 540.725 153.92 539.933 153.408 539.184C153.034 538.677 152.61 538.359 152.281 538.067C151.952 537.775 151.666 537.699 151.356 537.718L149.46 538.33L148.809 537.341L151.098 536.019C151.263 536.165 151.592 536.457 152.016 536.774C152.44 537.092 152.795 537.288 153.124 537.58C153.453 537.872 153.757 538.259 154.251 538.697C155.213 539.668 155.744 540.727 155.844 541.874Z" fill="black"/>
<path d="M125.37 523.319L126.118 522.807L127.264 524.234L135.084 518.996L132.34 518.974L123.906 518.14L123.519 518.443L124.233 519.959L123.485 520.471L120.67 516.152L121.418 515.64L122.45 516.731L132.129 510.259L131.389 508.839L132.138 508.326L135.048 512.671L134.299 513.183L133.223 511.876L125.282 517.184L127.836 517.156L136.461 518.041L137.063 517.693L136.254 516.152L137.002 515.639L139.912 519.984L139.164 520.496L138.158 519.31L128.479 525.782L129.124 527.177L128.375 527.689L125.37 523.319Z" fill="black"/>
<path d="M118.747 512.683C118.348 512.271 118.045 511.884 117.715 511.592C117.386 511.3 117.273 510.964 117.038 510.697C116.273 509.372 115.863 508.243 115.832 507.217C115.802 506.19 116.29 505.506 117.254 504.949C118.098 504.462 118.96 504.286 119.815 504.515C120.671 504.744 121.354 505.233 121.987 505.912C121.431 504.948 121.185 503.965 121.414 503.11C121.643 502.255 122.132 501.571 122.881 501.058C123.99 500.337 125.163 500.142 126.183 500.517C127.203 500.893 128.191 501.768 129.19 503.36C129.538 503.963 129.886 504.565 130.043 505.117C130.201 505.668 130.385 506.125 130.498 506.461C130.612 506.797 130.656 507.012 130.63 507.107L127.72 508.467L127.233 507.623L129.003 505.958C128.991 505.242 128.694 504.45 128.112 503.581C127.695 502.858 127.106 502.394 126.51 502.337C125.915 502.279 125.053 502.455 124.209 502.942C123.581 503.385 123.143 503.879 122.87 504.519C122.692 505.184 122.868 506.046 123.45 506.915L124.171 508.025L123.302 508.607L122.746 507.643C122.468 507.161 122.138 506.869 121.714 506.552C121.29 506.234 120.815 506.107 120.314 506.075C119.813 506.042 119.262 506.2 118.659 506.548C117.936 506.966 117.594 507.485 117.441 508.055C117.383 508.651 117.515 509.297 117.933 510.02C118.211 510.502 118.515 510.889 118.869 511.086C119.199 511.378 119.484 511.454 119.699 511.41L121.379 510.842L122.031 511.831L119.665 513.438C119.475 513.387 119.241 513.121 118.747 512.683Z" fill="black"/>
<path d="M111.4 498.288L111.924 499.752L111.106 500.144L109.88 497.88C109.671 497.519 109.393 497.037 109.019 496.529C108.646 496.022 108.437 495.66 108.298 495.419C107.489 493.878 107.199 492.68 107.238 491.774C107.372 490.893 107.861 490.209 108.825 489.653C109.643 489.261 110.41 489.059 111.17 489.263C111.956 489.371 112.64 489.86 113.178 490.514C112.647 489.455 112.401 488.472 112.63 487.617C112.859 486.761 113.348 486.078 114.286 485.616C115.371 484.99 116.518 484.89 117.607 485.385C118.722 485.786 119.754 486.877 120.772 488.78C120.981 489.141 121.164 489.598 121.373 489.959C121.765 490.777 122.018 491.354 122.182 491.5L123.339 493.644L122.521 494.036L121.636 492.78L111.4 498.288ZM114.398 493.183L113.936 492.245C113.519 491.522 113.05 490.989 112.385 490.811C111.72 490.632 111.073 490.765 110.255 491.157C109.532 491.574 108.999 492.042 108.847 492.613C108.694 493.183 108.896 493.95 109.357 494.888C109.566 495.25 109.844 495.732 110.053 496.093L110.262 496.455L114.885 494.027C114.885 494.027 114.676 493.665 114.398 493.183ZM120.049 489.197C119.423 488.113 118.79 487.434 118.055 487.135C117.32 486.836 116.579 486.943 115.735 487.43C114.892 487.917 114.359 488.386 114.276 489.076C114.193 489.767 114.299 490.509 114.856 491.473C115.482 492.557 115.804 493.255 116.013 493.616L120.903 490.954C120.764 490.713 120.511 490.136 120.049 489.197Z" fill="black"/>
<path d="M102.899 484.398L101.976 482.521L111.589 472.874L111.273 471.771L112.091 471.379L114.26 475.831L113.442 476.223L112.582 474.872L110.424 476.84L112.776 481.748L115.648 481.296L115.149 479.736L115.967 479.344L117.857 483.314L117.039 483.706L116.387 482.716L102.899 484.398ZM105.063 482.024L103.731 483.195L105.455 482.842L111.699 481.969L109.6 477.638L105.063 482.024Z" fill="black"/>
<path d="M110.276 468.652C110.091 469.723 109.595 470.812 108.865 471.635C108.136 472.458 107 473.274 105.726 473.85C104.451 474.425 103.183 474.595 101.992 474.479C100.801 474.364 99.6857 473.963 98.7422 473.303C97.7986 472.642 97.052 471.628 96.5464 470.473C96.1799 469.56 95.8643 468.457 95.5997 467.164L95.4674 466.517L98.6376 465.33L99.1432 466.484L97.1389 467.882C97.088 468.072 97.0811 468.478 97.1693 468.909C97.2576 469.34 97.4153 469.891 97.6681 470.468C97.9905 471.166 98.4334 471.794 99.1427 472.188C99.8521 472.582 100.612 472.785 101.544 472.729C102.476 472.673 103.553 472.453 104.707 471.947C105.741 471.511 106.705 470.955 107.504 470.252C108.304 469.55 108.793 468.866 109.022 468.01C109.346 467.181 109.265 466.344 108.873 465.526C108.62 464.949 108.342 464.467 108.107 464.2C107.873 463.934 107.639 463.667 107.259 463.566L105.231 463.531L104.915 462.428L107.527 461.804C107.666 462.045 107.875 462.407 108.179 462.793C108.483 463.18 108.812 463.472 109.02 463.834C109.229 464.195 109.507 464.677 109.76 465.254C110.266 466.408 110.461 467.581 110.276 468.652Z" fill="black"/>
<path d="M94.0852 456.47C93.0144 456.285 92.02 455.815 91.2665 455.206C90.5131 454.597 89.931 453.728 89.59 452.72C89.1794 451.591 89.0539 450.539 89.334 449.493C89.6141 448.448 90.0588 447.549 90.8582 446.846C91.6831 446.049 92.647 445.492 93.8961 445.012C95.3607 444.488 96.6285 444.318 97.8453 444.338C99.0366 444.454 100.152 444.855 101 445.489C101.849 446.124 102.526 447.019 102.962 448.052C103.372 449.181 103.472 450.328 103.287 451.399C103.102 452.47 102.562 453.343 101.738 454.141C100.913 454.939 99.9232 455.59 98.6741 456.07L99.7481 458.905L104.839 457.009L104.461 455.38L105.349 455.109L107.105 459.959L106.217 460.231L105.477 458.81L94.6226 462.828L94.9314 464.336L94.0438 464.608L92.2623 459.853L93.1499 459.581L93.8897 461.002L98.645 459.22L97.571 456.386C96.3729 456.676 95.1306 456.751 94.0852 456.47ZM92.9467 454.638C94.1821 454.969 95.7604 454.78 97.707 453.978C99.4126 453.314 100.643 452.524 101.424 451.511C102.205 450.497 102.39 449.427 101.979 448.298C101.568 447.169 100.72 446.535 99.5795 446.229C98.4391 445.924 96.8353 446.207 94.9142 446.914C93.2086 447.578 91.9782 448.368 91.2229 449.287C90.4421 450.3 90.2825 451.275 90.6931 452.404C90.9832 453.602 91.8062 454.332 92.9467 454.638Z" fill="black"/>
<path d="M92.2913 435.415C92.7802 434.731 93.4149 433.883 94.2907 432.895C94.8746 432.237 95.3125 431.743 95.6298 431.319C95.9218 430.989 95.9982 430.704 96.0491 430.514L96.0373 429.798L96.9248 429.527L97.651 431.758C97.7902 431.999 97.5678 432.449 97.2504 432.873C96.9076 433.393 96.3237 434.051 95.4989 434.849C94.6231 435.836 93.9187 436.564 93.4554 437.153C92.992 437.742 92.8647 438.217 92.9784 438.553L93.294 439.656L98.404 438.072L98.1462 436.373L99.0338 436.101L100.574 440.996L99.6867 441.267L99.0419 439.872L87.9343 443.313L88.148 444.796L87.2604 445.068L85.7894 440.294L86.6771 440.022L87.3218 441.417L92.4318 439.833L91.933 438.273L85.6422 436.282L85.9254 437.885L85.0378 438.157L83.6806 433.719L84.5682 433.448L85.2384 434.748L91.6684 436.98C91.5547 436.644 91.828 436.004 92.2913 435.415Z" fill="black"/>
<path d="M95.2808 426.539C94.9057 427.559 94.2709 428.408 93.3765 429.085C92.4821 429.762 91.3026 430.363 89.9839 430.722C88.5702 431.056 87.328 431.131 86.1621 430.92C84.9963 430.71 84.0273 430.145 83.2042 429.415C82.3812 428.685 81.8247 427.721 81.5346 426.523C81.0171 424.653 81.2345 423.081 82.2121 421.714C83.1643 420.441 84.6357 419.511 86.7215 418.949C88.1352 418.615 89.4725 418.566 90.6383 418.777C91.8042 418.987 92.8682 419.578 93.6912 420.308C94.5142 421.037 95.0708 422.001 95.3609 423.2C95.651 424.398 95.656 425.52 95.2808 426.539ZM84.6248 428.675C85.8348 429.101 87.3876 429.008 89.3528 428.516C91.1976 428.094 92.5231 427.328 93.3734 426.436C94.2237 425.543 94.5292 424.403 94.2137 423.3C93.9236 422.102 93.1006 421.372 91.8906 420.946C90.6806 420.52 89.0327 420.587 87.0675 421.079C85.2228 421.502 83.8973 422.267 83.047 423.16C82.1967 424.052 81.9166 425.097 82.2067 426.296C82.7123 427.45 83.5098 428.275 84.6248 428.675Z" fill="black"/>
<path d="M80.4305 416.958L80.5237 418.511L79.6616 418.688L79.1069 416.196C79.0187 415.765 78.8609 415.214 78.7031 414.662C78.5454 414.11 78.3621 413.654 78.3434 413.343C77.9906 411.619 78.0111 410.402 78.3353 409.572C78.6595 408.743 79.408 408.23 80.3906 407.984C81.2527 407.808 82.0384 407.916 82.7732 408.215C83.4826 408.609 84.046 409.167 84.4379 409.985C84.1478 408.787 84.1869 407.881 84.6062 407.077C85.0254 406.272 85.7739 405.76 86.731 405.609C87.9292 405.319 89.0951 405.529 90.0131 406.285C90.9566 406.945 91.6964 408.365 92.0934 410.305C92.1816 410.736 92.2698 411.167 92.263 411.573C92.4139 412.53 92.5717 413.081 92.6158 413.297L93.196 415.693L92.3339 415.87L91.8096 414.405L80.4305 416.958ZM84.6753 412.901L84.4293 411.918C84.2528 411.056 83.905 410.454 83.2907 410.085C82.7714 409.743 81.9857 409.634 81.0981 409.905C80.236 410.082 79.6335 410.43 79.3857 410.974C79.1378 411.519 79.0291 412.305 79.2497 413.382C79.3379 413.814 79.4261 414.245 79.6093 414.701L79.723 415.037L84.8008 413.953C84.8517 413.763 84.738 413.427 84.6753 412.901ZM91.1108 410.551C90.8207 409.353 90.4287 408.535 89.7448 408.046C89.156 407.583 88.3702 407.474 87.3876 407.72C86.4305 407.871 85.8025 408.314 85.5547 408.859C85.2118 409.378 85.1727 410.284 85.3932 411.362C85.6833 412.56 85.8598 413.422 85.9734 413.758L91.3872 412.56C91.4636 412.275 91.3313 411.629 91.1108 410.551Z" fill="black"/>
<path d="M73.9688 388.235L74.926 388.084L75.4248 389.643L86.9107 387.832L86.8684 386.089L87.8256 385.938L88.6686 391.155L87.7114 391.306L87.3076 389.772L75.8217 391.583L76.7716 397.542L88.3525 395.756L88.3102 394.013L89.2674 393.862L90.0154 399.053L89.0582 399.204L88.629 397.765L77.143 399.576L77.1158 401.199L76.1586 401.35L73.9688 388.235Z" fill="black"/>
<path d="M86.6007 382.147C86.156 383.046 85.3312 383.844 84.3672 384.4C83.4032 384.957 82.1795 385.342 80.7218 385.461C79.264 385.579 77.9776 385.438 76.8627 385.038C75.7477 384.637 74.8042 383.977 74.1271 383.082C73.4501 382.188 73.014 381.154 72.914 380.007C72.7071 378.118 73.14 376.503 74.2568 375.376C75.3736 374.249 76.9842 373.56 79.1836 373.335C80.6414 373.216 81.9277 373.357 83.0427 373.758C84.1576 374.158 85.1011 374.819 85.8732 375.739C86.5502 376.633 86.9863 377.667 87.0863 378.814C87.2305 380.177 87.0454 381.247 86.6007 382.147ZM75.7564 382.704C76.9154 383.32 78.4173 383.417 80.4962 383.261C82.3851 383.054 83.7292 382.6 84.7696 381.758C85.7845 381.011 86.2547 380.017 86.0851 378.749C85.985 377.602 85.308 376.708 84.1489 376.091C82.9899 375.475 81.393 375.353 79.4091 375.534C77.5202 375.741 76.0811 376.17 75.1357 377.038C74.1208 377.784 73.7457 378.804 73.9153 380.072C73.9898 381.314 74.6669 382.209 75.7564 382.704Z" fill="black"/>
<path d="M80.6928 367.322C82.3847 367.47 83.7407 367.732 84.6401 368.176C85.0898 368.399 85.419 368.691 85.6531 368.957C85.8618 369.319 85.9755 369.655 86.0637 370.086C86.101 370.707 86.0942 371.113 86.0178 371.398L84.5345 371.611C84.5159 371.301 84.5227 370.895 84.5109 370.179C84.4668 369.963 84.4227 369.748 84.2581 369.602C84.0935 369.456 83.9289 369.31 83.6693 369.139C82.1555 368.326 79.0822 368.011 74.5187 368.316L73.0609 368.435L73.0014 370.558L72.0697 370.614L71.3918 359.839L72.3235 359.783L72.6763 361.508L84.2877 360.748L84.3659 358.936L85.2976 358.88L85.7027 364.591L84.771 364.647L84.4691 362.732L72.8832 363.396L73.0814 367.218L74.7293 367.151C77.0678 367.166 79.0008 367.175 80.6928 367.322Z" fill="black"/>
<path d="M72.5241 356.374L72.3067 357.945L71.375 358.001L71.1773 348.476L74.1183 348.143L74.1488 349.17L72.3736 349.713L72.3426 354.39L77.5713 354.263L77.48 351.183L75.9085 350.966L75.878 349.939L80.175 349.868L80.2054 350.895L78.6017 351.178L78.5726 354.328L84.1118 354.182L83.7949 348.903L81.4005 347.955L81.706 346.815L84.944 347.275L85.1281 357.612L84.1964 357.668L84.0081 356.09L72.5241 356.374Z" fill="black"/>
<path d="M72.308 340.834L72.3739 344.009L76.2517 344.743L76.2312 345.959L71.2503 345.541L71.5178 333.9L76.5309 333.817L76.5105 335.034L72.5868 335.612L72.4372 338.831L84.1995 339.029L84.4119 336.336L85.3181 336.375L85.1512 343.46L84.245 343.421L84.0958 340.937L72.308 340.834Z" fill="black"/>
<path d="M79.734 326.425L79.695 327.331C79.9037 327.692 80.2329 327.984 80.8472 328.353C81.3664 328.695 82.0758 329.089 82.9752 329.534C83.8746 329.979 84.4889 330.347 84.9386 330.569C85.3883 330.792 85.6225 331.058 85.5716 331.248L85.4101 333.751L84.5039 333.712L84.3971 332.971C84.3529 332.755 84.1883 332.609 83.9542 332.343C83.5995 332.146 83.1752 331.828 82.4914 331.339C81.687 330.92 81.0982 330.457 80.5789 330.114C80.0596 329.771 79.7559 329.384 79.5472 329.023C79.2229 329.853 78.7596 330.441 78.0111 330.954C77.2881 331.371 76.5211 331.573 75.5198 331.509C74.0179 331.412 73.0235 330.942 72.4669 329.978C71.9104 329.014 71.7408 327.746 71.8631 326.149C71.8699 325.743 71.9717 325.363 72.0295 324.768C72.0873 324.172 72.2146 323.697 72.1959 323.386L72.4083 320.693L73.3145 320.732L73.4077 322.285L85.0173 323.053L85.2856 321.291L86.1918 321.331L85.8367 326.837L84.9305 326.798L84.9136 324.96L79.9073 324.638L79.734 326.425ZM72.9612 324.712C72.8084 325.282 72.7761 325.782 72.7693 326.188C72.7047 327.189 72.8116 327.931 73.2799 328.464C73.7483 328.997 74.388 329.27 75.4843 329.36C76.4856 329.425 77.2527 329.223 77.8807 328.78C78.5086 328.337 78.7123 327.577 78.8719 326.601C78.9365 325.6 78.9943 325.004 78.9061 324.573L73.209 324.167L72.9612 324.712Z" fill="black"/>
<path d="M73.9056 313.964L73.661 317.158L77.4623 318.177L77.3468 319.368L72.3728 318.545L73.6415 306.967L78.6478 307.29L78.5323 308.481L74.6155 308.654L74.1553 311.892L85.8276 313.186L86.3251 310.57L87.2058 310.704L86.4178 317.826L85.537 317.692L85.578 315.259L73.9056 313.964Z" fill="black"/>
<path d="M88.03 300.026C87.3002 300.849 86.3107 301.5 85.2076 301.816C84.1045 302.131 82.7672 302.181 81.4113 301.919C80.0553 301.658 78.8453 301.232 77.9273 300.476C77.0092 299.721 76.2372 298.801 75.8266 297.673C75.416 296.544 75.3159 295.397 75.5519 294.136C75.7115 293.16 76.0171 292.02 76.5382 290.835L76.786 290.29L80.0681 290.966L79.8321 292.227L77.3731 292.281C77.2271 292.446 77.0557 292.705 76.8333 293.155C76.6364 293.51 76.4836 294.08 76.4259 294.676C76.3172 295.461 76.4241 296.203 76.7464 296.9C77.0688 297.598 77.6322 298.156 78.5061 298.696C79.2851 299.21 80.3304 299.49 81.5913 299.726C82.7572 299.937 83.7839 299.907 84.8361 299.781C85.7933 299.63 86.7063 299.264 87.3598 298.726C88.0132 298.188 88.407 297.478 88.5666 296.503C88.6498 295.812 88.6821 295.311 88.6634 295.001C88.6448 294.69 88.5311 294.354 88.3224 293.993L86.6695 292.939L86.9751 291.798L89.4901 292.676C89.4137 292.961 89.5274 293.297 89.5901 293.823C89.6783 294.254 89.646 294.755 89.7343 295.186C89.8225 295.617 89.6951 296.092 89.6119 296.783C89.2809 298.018 88.7853 299.108 88.03 300.026Z" fill="black"/>
<path d="M77.7964 282.718L78.6772 282.852L78.5039 284.639L87.6595 286.583L85.7351 284.642L80.3815 278.012L79.9063 277.885L79.3784 279.475L78.4976 279.341L79.5366 274.323L80.4174 274.457L80.3206 275.959L91.6873 278.394L92.1898 276.898L93.0451 277.128L91.9806 282.241L91.1253 282.012L91.2731 280.32L81.9275 278.325L83.7822 280.146L89.2054 286.896L89.8707 287.074L90.4241 285.389L91.3048 285.523L90.2403 290.636L89.3596 290.502L89.4819 288.905L78.1151 286.47L77.6382 287.87L76.7574 287.736L77.7964 282.718Z" fill="black"/>
<path d="M82.3768 262.963L87.1794 264.046L86.8484 265.281L83.0843 264.884L81.9198 268.85L93.3748 271.716L94.4052 268.63L95.2605 268.86L93.4711 275.918L92.6158 275.688L92.9605 273.642L81.6956 270.827L80.9963 272.677L80.141 272.448L82.3768 262.963Z" fill="black"/>
<path d="M84.3575 260.132L83.6904 261.482L82.8351 261.252L84.3493 256.362L85.2046 256.591L84.9873 258.162L89.7831 259.651L91.6792 253.335L86.8834 251.846L86.2164 253.195L85.3611 252.966L86.8498 248.17L87.7051 248.399L87.5132 249.876L98.6253 253.261L99.1974 251.886L100.053 252.115L98.5639 256.911L97.7086 256.682L98.021 255.136L92.8451 253.545L90.9489 259.861L96.1248 261.452L96.7223 259.982L97.5776 260.212L96.0634 265.103L95.2081 264.873L95.4951 263.422L84.3575 260.132Z" fill="black"/>
<path d="M88.8919 241.689L89.6167 239.744L103.268 239.735L103.859 238.671L104.688 238.996L103.035 243.645L102.205 243.321L102.518 241.775L99.5834 241.702L97.8028 246.827L100.089 248.56L100.781 247.116L101.611 247.44L100.18 251.64L99.3501 251.316L99.5606 250.15L88.8919 241.689ZM92.1621 241.649L90.4702 241.501L91.933 242.504L96.9288 246.287L98.5312 241.827L92.1621 241.649Z" fill="black"/>
<path d="M101.787 232.718C103.275 233.626 104.383 234.432 104.991 235.206C105.295 235.593 105.478 236.049 105.592 236.385C105.68 236.817 105.578 237.197 105.476 237.577C105.228 238.122 105.031 238.476 104.86 238.736L103.46 238.259C103.631 237.999 103.759 237.524 104.007 236.979C104.057 236.789 104.134 236.504 104.064 236.384C104.02 236.168 103.881 235.927 103.742 235.686C102.692 234.284 100.07 232.665 95.8255 231.018L94.4509 230.446L93.441 232.315L92.6111 231.991L96.6221 221.963L97.452 222.287L96.9936 223.998L107.756 228.308L108.595 226.699L109.424 227.023L107.282 232.357L106.452 232.033L106.962 230.132L96.1993 225.822L94.7564 229.306L96.3211 229.929C98.4746 231.015 100.299 231.81 101.787 232.718Z" fill="black"/>
<path d="M104.797 216.922C105.464 215.572 106.22 214.654 107.253 214.218C108.287 213.782 109.288 213.847 110.472 214.368C111.727 215.01 112.619 215.86 112.909 217.058C113.225 218.161 113.084 219.448 112.417 220.797C112.366 220.987 112.22 221.151 112.169 221.341C112.023 221.506 111.972 221.696 111.801 221.956C111.432 222.57 111.184 223.115 110.937 223.659L109.92 225.933L109.116 225.514L109.618 224.019L99.0338 219.044L98.1767 220.342L97.3723 219.923L99.5772 215.115L100.382 215.535L99.8027 217.315L103.685 219.17L104.797 216.922ZM104.8 203.987L105.604 204.406L105.051 206.091L115.54 211.04L116.448 209.552L117.253 209.971L114.902 214.944L114.097 214.524L114.651 212.839L104.162 207.89L103.254 209.378L102.449 208.959L104.8 203.987ZM110.971 221.631C111.117 221.467 111.219 221.087 111.415 220.732C111.86 219.833 111.899 218.926 111.602 218.134C111.305 217.341 110.647 216.757 109.653 216.287C108.753 215.843 107.847 215.803 107.175 216.031C106.477 216.353 105.919 216.917 105.474 217.816L104.705 219.545L110.412 222.195C110.653 222.056 110.825 221.796 110.971 221.631Z" fill="black"/>
<path d="M109.86 196.888L108.933 198.066L108.129 197.647L110.637 193.226L111.442 193.645L110.844 195.115L115.29 197.528L118.466 191.759L114.02 189.345L113.093 190.523L112.289 190.104L114.677 185.752L115.481 186.172L115.004 187.572L125.195 193.256L126.121 192.078L126.926 192.498L124.512 196.944L123.708 196.525L124.305 195.055L119.504 192.444L116.329 198.214L121.13 200.825L122.107 199.457L122.912 199.876L120.377 204.392L119.573 203.973L120.145 202.598L109.86 196.888Z" fill="black"/>
<path d="M118.284 179.894L119.363 178.147L132.726 181.116L133.481 180.198L134.26 180.712L131.612 184.892L130.833 184.377L131.526 182.933L128.675 182.169L125.804 186.799L127.652 189.025L128.7 187.778L129.478 188.292L127.148 192.048L126.369 191.534L126.865 190.444L118.284 179.894ZM121.376 180.519L119.76 180.086L120.956 181.324L125.076 186.094L127.578 182.079L121.376 180.519Z" fill="black"/>
<path d="M127.849 167.383L126.51 168.959L125.731 168.445L128.639 164.437L136.97 167.178L139.269 168.1L137.63 166.235L132.283 159.2L135.19 155.192L135.969 155.706L134.985 157.479L145.321 162.999L146.463 161.777L147.242 162.291L144.017 166.724L143.239 166.21L144.052 164.696L136.724 160.492L133.532 158.72L135.285 160.921L141.422 169.186L140.737 170.225L131.69 167.495L128.13 166.337L130.858 168.698L137.234 174.175L138.427 172.763L139.206 173.278L136.419 177.216L135.64 176.702L136.427 175.283L127.849 167.383Z" fill="black"/>
<path d="M139.557 149.538L140.801 147.936L153.756 152.426L154.581 151.628L155.335 152.237L152.263 156.1L151.509 155.49L152.366 154.192L149.687 153.168L146.297 157.455L147.904 159.821L149.021 158.694L149.775 159.303L147.02 162.741L146.266 162.132L146.857 161.068L139.557 149.538ZM142.573 150.447L141.008 149.825L142.059 151.226L145.551 156.44L148.477 152.742L142.573 150.447Z" fill="black"/>
<path d="M147.101 142.29L145.941 143.201L145.187 142.592L146.818 140.686C147.11 140.357 147.402 140.028 147.599 139.673C148.037 139.179 148.38 138.66 148.818 138.166C149.985 136.85 151.121 136.033 152.078 135.882C153.035 135.731 154.055 136.107 155.042 136.982C155.796 137.592 156.308 138.34 156.58 139.228C156.851 140.115 156.838 140.926 156.608 141.782C156.379 142.637 155.935 143.537 155.23 144.264C154.964 144.499 154.767 144.853 154.5 145.088C154.234 145.322 154.088 145.486 154.063 145.581L157.215 148.26L159.011 146.5L159.67 147.084L155.678 151.718L155.019 151.134L155.876 149.836L147.101 142.29ZM154.572 143.681C155.181 142.927 155.505 142.097 155.424 141.261C155.343 140.424 154.856 139.581 153.798 138.584C152.975 137.854 152.241 137.556 151.499 137.663C150.757 137.769 150.129 138.212 149.279 139.105C148.987 139.434 148.79 139.789 148.498 140.118C148.327 140.378 148.206 140.447 148.181 140.542L153.239 144.852C153.576 144.738 153.988 144.339 154.572 143.681Z" fill="black"/>
<path d="M164.938 140.347C163.835 140.662 162.738 140.572 161.598 140.267C160.483 139.866 159.419 139.275 158.362 138.279C157.4 137.308 156.653 136.293 156.268 135.07C155.857 133.941 155.878 132.724 156.088 131.559C156.394 130.418 156.89 129.329 157.835 128.462C158.539 127.734 159.339 127.031 160.569 126.24L161.076 125.867L163.374 128.316L162.524 129.209L160.421 127.932C160.206 127.976 159.87 128.09 159.508 128.299C159.147 128.507 158.734 128.906 158.322 129.305C157.763 129.868 157.465 130.603 157.381 131.294C157.273 132.08 157.475 132.847 157.841 133.76C158.233 134.578 158.91 135.472 159.803 136.323C160.6 137.147 161.569 137.713 162.469 138.157C163.368 138.602 164.249 138.736 165.086 138.655C165.922 138.573 166.645 138.156 167.324 137.523C167.762 137.029 168.079 136.605 168.251 136.345C168.422 136.086 168.524 135.706 168.505 135.395L167.677 133.543L168.597 132.771L170.255 134.947C170.109 135.112 169.912 135.466 169.664 136.011C169.442 136.461 169.245 136.815 169.048 137.17C168.851 137.525 168.534 137.949 168.096 138.443C167.03 139.38 165.946 140.006 164.938 140.347Z" fill="black"/>
<path d="M176.007 110.82L176.64 111.499L175.447 112.911L181.725 119.89L181.342 117.139L180.959 108.684L180.655 108.297L179.279 109.253L178.646 108.574L182.522 105.131L183.155 105.809L182.229 106.987L189.982 115.685L191.238 114.8L191.871 115.478L187.994 118.921L187.361 118.243L188.504 117.021L182.156 109.921L182.59 112.482L182.922 121.127L183.39 121.66L184.792 120.61L185.425 121.289L181.523 124.827L180.89 124.148L181.912 122.996L174.159 114.297L172.928 115.088L172.295 114.409L176.007 110.82Z" fill="black"/>
<path d="M185.688 102.821C186.005 102.397 186.323 101.973 186.614 101.644C186.906 101.314 187.173 101.08 187.439 100.846C188.626 99.8397 189.78 99.3341 190.737 99.1832C191.694 99.0322 192.498 99.4515 193.201 100.251C193.808 101.025 194.105 101.817 193.971 102.698C193.837 103.579 193.538 104.314 192.929 105.067C193.823 104.39 194.736 104.024 195.617 104.158C196.523 104.197 197.233 104.591 197.84 105.365C198.682 106.405 198.997 107.508 198.812 108.579C198.627 109.65 197.821 110.758 196.394 111.903C195.861 112.372 195.258 112.719 194.776 112.998C194.294 113.276 193.838 113.459 193.502 113.573C193.166 113.687 192.95 113.731 192.925 113.826L191.109 111.098L191.883 110.491L193.814 112.027C194.461 111.895 195.279 111.503 196.078 110.8C196.732 110.262 197.1 109.648 197.063 109.027C197.051 108.311 196.823 107.638 196.121 106.839C195.678 106.211 195.064 105.843 194.373 105.76C193.682 105.676 192.89 105.973 191.995 106.65L190.955 107.492L190.253 106.693L191.052 105.99C191.439 105.686 191.756 105.262 191.979 104.812C192.201 104.363 192.328 103.888 192.266 103.361C192.203 102.835 191.925 102.353 191.551 101.846C191.013 101.193 190.494 100.85 189.873 100.887C189.252 100.924 188.675 101.177 188.047 101.62C187.634 102.019 187.342 102.348 187.05 102.677C186.759 103.006 186.777 103.317 186.821 103.532L187.631 105.073L186.711 105.846L184.742 103.688C184.983 103.549 185.275 103.22 185.688 102.821Z" fill="black"/>
<path d="M198.875 93.5207L197.454 94.2605L196.942 93.5121L198.972 92.0188C199.333 91.8101 199.745 91.4113 200.253 91.038C200.665 90.6393 201.052 90.3355 201.293 90.1964C202.695 89.146 203.849 88.6404 204.755 88.6795C205.662 88.7186 206.466 89.1379 207.074 89.9118C207.586 90.6602 207.788 91.4273 207.774 92.2385C207.761 93.0497 207.367 93.7591 206.783 94.4175C207.703 93.6454 208.685 93.3994 209.592 93.4385C210.498 93.4776 211.277 93.9919 211.789 94.7403C212.536 95.7552 212.756 96.8329 212.546 97.9988C212.335 99.1646 211.314 100.317 209.645 101.601C209.258 101.905 208.897 102.114 208.535 102.323C207.692 102.81 207.279 103.208 207.064 103.252L205.034 104.746L204.522 103.997L205.613 102.965L198.875 93.5207ZM204.278 95.7834L205.147 95.2014C205.895 94.6889 206.264 94.0746 206.321 93.4789C206.379 92.8833 206.177 92.1162 205.665 91.3677C205.152 90.6193 204.633 90.2764 204.037 90.2187C203.442 90.1609 202.649 90.4578 201.875 91.0653C201.488 91.3691 201.127 91.5778 200.835 91.907L200.568 92.1412L203.625 96.3213C203.529 96.2958 203.891 96.0871 204.278 95.7834ZM209.063 100.732C210.078 99.9858 210.687 99.2324 210.796 98.4466C210.905 97.6609 210.703 96.8938 210.19 96.1454C209.583 95.3715 208.994 94.9081 208.398 94.8504C207.708 94.7671 207.01 95.0895 206.116 95.7666C205.101 96.5132 204.473 96.9561 204.207 97.1902L207.471 101.732C207.687 101.688 208.194 101.314 209.063 100.732Z" fill="black"/>
<path d="M211.436 83.1358L213.174 81.9717L224.109 90.1984L225.168 89.6673L225.68 90.4157L221.577 93.1867L221.064 92.4382L222.25 91.432L219.99 89.604L215.404 92.6533L216.193 95.4111L217.614 94.6713L218.126 95.4197L214.409 97.8869L213.897 97.1385L214.722 96.3409L211.436 83.1358ZM214.102 84.9705L212.759 83.8979L213.328 85.578L215.063 91.6452L219.021 89.0388L214.102 84.9705Z" fill="black"/>
<path d="M228.009 88.1877C226.887 88.1927 225.867 87.8175 224.803 87.2269C223.86 86.5666 222.992 85.6213 222.202 84.3908C221.506 83.1859 221.121 81.9622 221.021 80.815C220.921 79.6678 221.252 78.4323 221.817 77.4634C222.408 76.3994 223.233 75.6018 224.343 74.8807C225.186 74.3937 226.22 73.9576 227.564 73.5029L228.141 73.2501L229.69 76.2116L228.605 76.8377L226.941 75.0675C226.751 75.0166 226.415 75.1303 225.984 75.2185C225.553 75.3067 225.071 75.585 224.589 75.8633C223.866 76.2807 223.402 76.8695 223.129 77.5093C222.83 78.2441 222.722 79.0299 222.872 79.987C223.023 80.9442 223.46 81.9777 224.111 82.9672C224.763 83.9566 225.44 84.851 226.193 85.4603C226.947 86.0697 227.751 86.4889 228.606 86.7181C229.462 86.9472 230.229 86.7454 231.072 86.2584C231.675 85.9105 232.062 85.6068 232.233 85.3471C232.5 85.113 232.696 84.7583 232.773 84.4732L232.496 82.4639L233.555 81.9328L234.516 84.4309C234.275 84.5701 234.008 84.8042 233.691 85.2285C233.399 85.5577 233.107 85.8869 232.72 86.1906C232.428 86.5198 231.946 86.7981 231.464 87.0764C230.329 87.8926 229.131 88.1827 228.009 88.1877Z" fill="black"/>
<path d="M237.758 70.4287C237.848 69.3324 238.128 68.287 238.668 67.4131C239.208 66.5391 239.887 65.9062 240.851 65.3496C241.935 64.7235 243.013 64.503 244.014 64.5675C245.015 64.6321 246.035 65.0073 246.858 65.7371C247.681 66.4669 248.453 67.3868 249.175 68.4967C249.94 69.8222 250.299 71.1408 250.374 72.3831C250.449 73.6254 250.264 74.6962 249.698 75.6652C249.133 76.6341 248.429 77.3621 247.465 77.9187C246.38 78.5448 245.303 78.7653 244.206 78.6753C243.205 78.6107 242.185 78.2356 241.337 77.6008C240.488 76.966 239.621 76.0207 239.02 74.8412L236.395 76.2767L238.988 81.0457L240.478 80.4264L240.87 81.2444L236.342 83.6979L235.95 82.8799L237.206 81.9942L231.698 71.7587L230.233 72.2829L229.746 71.4395L234.154 69.0554L234.641 69.8989L233.385 70.7847L235.769 75.1922L238.489 73.7822C237.958 72.7231 237.738 71.6455 237.758 70.4287ZM239.522 69.1696C239.381 70.456 239.784 71.9902 240.828 73.7976C241.732 75.3641 242.644 76.525 243.803 77.1411C244.962 77.7573 245.963 77.8218 247.142 77.2212C248.201 76.6901 248.767 75.7211 248.787 74.5043C248.808 73.2875 248.404 71.7533 247.455 69.9713C246.551 68.4048 245.64 67.244 244.576 66.6533C243.512 66.0626 242.415 65.9726 241.356 66.5037C240.297 67.0348 239.663 67.8833 239.522 69.1696Z" fill="black"/>
<path d="M258.481 65.694C259.191 66.0878 260.065 66.6275 261.224 67.2437C262.003 67.7579 262.522 68.1008 262.972 68.3231C263.421 68.5455 263.611 68.5964 263.827 68.5523L264.569 68.4455L264.961 69.2635L262.868 70.2306C262.627 70.3698 262.247 70.2679 261.702 70.0201C261.157 69.7723 260.474 69.2835 259.53 68.6232C258.517 67.8425 257.643 67.3027 257.029 66.9344C256.414 66.5661 255.914 66.5338 255.578 66.6475L254.519 67.1786L256.801 71.9662L258.361 71.4674L258.752 72.2854L254.085 74.498L253.693 73.68L255.019 72.9147L250.088 62.4264L248.649 62.8556L248.257 62.0376L252.804 59.8946L253.196 60.7126L251.845 61.5729L254.101 66.4556L255.522 65.7158L256.658 59.1958L255.098 59.6946L254.706 58.8765L258.891 56.9422L259.283 57.7603L258.053 58.551L256.676 65.2102C257.081 65.217 257.747 65.3952 258.481 65.694Z" fill="black"/>
<path d="M267.688 67.4479C266.617 67.2629 265.743 66.7231 264.946 65.8983C264.148 65.0734 263.401 64.0585 262.852 62.6889C262.302 61.3194 262.012 60.1212 262.127 58.9299C262.243 57.7385 262.523 56.6932 263.183 55.7496C263.843 54.8061 264.738 54.1291 265.771 53.693C267.597 52.96 269.125 52.9619 270.569 53.6544C272.013 54.3469 273.159 55.7743 273.961 57.7209C274.511 59.0905 274.775 60.3836 274.66 61.575C274.544 62.7663 274.239 63.9067 273.579 64.8502C272.918 65.7937 272.024 66.4708 270.99 66.9069C269.811 67.5075 268.759 67.633 267.688 67.4479ZM264.088 57.3161C263.852 58.577 264.16 60.0857 264.868 62.0069C265.626 63.738 266.512 64.9939 267.551 65.6796C268.564 66.4603 269.66 66.5504 270.814 66.0447C271.943 65.6341 272.603 64.6906 272.839 63.4297C273.075 62.1688 272.792 60.5651 271.964 58.7135C271.205 56.9824 270.319 55.7265 269.281 55.0408C268.242 54.3551 267.171 54.17 266.017 54.6756C264.958 55.2067 264.324 56.0552 264.088 57.3161Z" fill="black"/>
<path d="M275.046 51.3907L273.537 51.6994L273.266 50.8119L275.644 49.9211C276.075 49.8329 276.557 49.5546 277.134 49.3018C277.711 49.049 278.072 48.8403 278.383 48.8216C279.968 48.2278 281.236 48.0582 282.091 48.2874C282.946 48.5166 283.605 49.1004 283.946 50.1085C284.243 50.9011 284.324 51.7377 284.025 52.4725C283.727 53.2073 283.238 53.8912 282.515 54.3086C283.643 53.898 284.575 53.8421 285.43 54.0713C286.286 54.3005 286.919 54.9793 287.26 55.9874C287.67 57.116 287.65 58.3328 287.085 59.3018C286.494 60.3658 285.238 61.2516 283.317 61.9591C282.86 62.1423 282.524 62.256 282.093 62.3442C281.206 62.6157 280.629 62.8685 280.413 62.9126L278.035 63.8033L277.738 63.0108L279.159 62.271L275.046 51.3907ZM279.662 55.072L280.67 54.731C281.463 54.4341 281.995 53.9658 282.269 53.326C282.542 52.6862 282.53 51.9701 282.138 51.152C281.841 50.3595 281.373 49.8266 280.828 49.5787C280.284 49.3309 279.447 49.4123 278.439 49.7533C277.982 49.9366 277.621 50.1453 277.164 50.3285L276.803 50.5372L278.654 55.4131C278.774 55.3435 279.11 55.2298 279.662 55.072ZM282.83 61.1156C283.958 60.705 284.732 60.0975 285.126 59.3882C285.52 58.6788 285.508 57.9627 285.167 56.9546C284.801 56.0415 284.332 55.5086 283.787 55.2608C283.148 54.9875 282.311 55.0689 281.277 55.5049C280.054 55.8901 279.356 56.2125 279.02 56.3261L280.985 61.538C281.245 61.7094 281.917 61.4821 282.83 61.1156Z" fill="black"/>
<path d="M302.57 41.0427L302.842 41.9303L301.421 42.6701L304.767 53.7523L306.491 53.3994L306.762 54.287L301.773 55.8021L301.501 54.9145L302.897 54.2697L299.481 43.0671L293.725 44.784L297.14 55.9867L298.864 55.6338L299.136 56.5214L294.146 58.0365L293.875 57.1489L295.27 56.5041L291.924 45.422L290.32 45.7052L290.049 44.8176L302.57 41.0427Z" fill="black"/>
<path d="M310.371 52.6056C309.351 52.2304 308.502 51.5957 307.825 50.7013C307.148 49.8068 306.642 48.6528 306.308 47.2391C305.974 45.8254 305.9 44.5832 306.136 43.3223C306.346 42.1564 306.911 41.1874 307.641 40.3644C308.371 39.5414 309.335 38.9848 310.533 38.6947C312.403 38.1773 313.975 38.3946 315.342 39.3723C316.615 40.3244 317.545 41.7959 318.081 43.9767C318.415 45.3903 318.464 46.7276 318.254 47.8935C318.018 49.1544 317.453 50.1234 316.628 50.9209C315.803 51.7185 314.839 52.275 313.736 52.5906C312.417 52.9503 311.39 52.9807 310.371 52.6056ZM308.235 41.9495C307.809 43.1595 307.902 44.7123 308.394 46.6776C308.816 48.5223 309.582 49.8478 310.474 50.6981C311.367 51.5484 312.507 51.854 313.61 51.5384C314.809 51.2483 315.513 50.5203 315.964 49.2153C316.39 48.0054 316.323 46.3575 315.831 44.3922C315.408 42.5475 314.643 41.222 313.751 40.3717C312.858 39.5214 311.813 39.2413 310.614 39.5314C309.46 40.037 308.635 40.8346 308.235 41.9495Z" fill="black"/>
<path d="M324.297 44.7255C324.435 46.4938 324.294 47.7802 323.919 48.8001C323.791 49.2753 323.474 49.6995 323.207 49.9337C322.941 50.1679 322.579 50.3766 322.148 50.4648C321.597 50.6226 321.096 50.5903 320.881 50.6344L320.451 49.1952C320.762 49.1766 321.193 49.0884 321.84 48.9561C322.055 48.912 322.271 48.8678 322.417 48.7032C322.563 48.5386 322.709 48.374 322.785 48.0889C323.433 46.4293 323.221 43.4186 322.295 38.8925L321.961 37.4788L319.762 37.7043L319.585 36.8422L330.146 34.681L330.323 35.5432L328.643 36.1115L330.98 47.5347L332.869 47.3278L333.045 48.1899L327.442 49.3367L327.265 48.4746L329.161 47.8621L326.823 36.4389L323.159 37.1887L323.538 38.8179C323.858 41.0428 324.135 43.0522 324.297 44.7255Z" fill="black"/>
<path d="M333.91 35.0784L332.383 35.0766L332.232 34.1195L341.614 32.559L342.377 35.4118L341.325 35.5373L340.471 33.7808L335.927 34.3964L336.77 39.6133L339.882 39.0213L339.884 37.4939L340.936 37.3684L341.628 41.6281L340.576 41.7536L340.077 40.1939L336.99 40.6909L337.852 46.2183L343.024 45.1598L343.591 42.6635L344.757 42.874L344.798 46.1443L334.58 47.7862L334.403 46.924L335.937 46.5203L333.91 35.0784Z" fill="black"/>
<path d="M349.32 32.6887L346.138 33.1602L346 37.0957L344.732 37.2653L344.434 32.2962L356.008 30.9158L356.833 35.8221L355.685 35.9221L354.581 32.0612L351.355 32.3172L352.805 44.0118L355.479 43.9136L355.535 44.8453L348.48 45.7051L348.425 44.7734L350.795 44.2883L349.32 32.6887Z" fill="black"/>
<path d="M364.6 38.0051L363.668 38.061C363.402 38.2952 363.084 38.7194 362.837 39.2642C362.563 39.904 362.265 40.6388 362.01 41.5891C361.66 42.514 361.482 43.1792 361.26 43.6289C361.037 44.0786 360.866 44.3382 360.65 44.3824L358.14 44.6265L358.084 43.6948L358.757 43.4675C358.972 43.4234 359.118 43.2588 359.315 42.9041C359.512 42.5494 359.76 42.0047 360.058 41.2699C360.383 40.44 360.776 39.7307 361.024 39.186C361.367 38.6667 361.684 38.2425 362.046 38.0337C361.165 37.8996 360.456 37.5058 359.918 36.8524C359.38 36.199 359.083 35.4064 359.027 34.4747C358.908 33.0169 359.309 31.902 360.083 31.2945C360.977 30.6175 362.201 30.2323 363.849 30.1646C364.159 30.1459 364.685 30.0832 365.281 30.1409C365.902 30.1037 366.308 30.1105 366.618 30.0918L369.319 29.8986L369.374 30.8303L367.866 31.139L368.771 42.5859L370.488 42.6386L370.544 43.5703L365.024 44.0263L364.968 43.0947L366.787 42.7673L366.394 37.7728L364.6 38.0051ZM365.363 30.9776C364.767 30.9199 364.336 31.0081 363.835 30.9758C362.903 31.0317 362.111 31.3286 361.699 31.7274C361.166 32.1957 360.962 32.956 361.087 34.0082C361.118 35.0349 361.535 35.7579 362.004 36.2908C362.592 36.7542 363.353 36.9579 364.284 36.902C365.311 36.8715 365.958 36.7392 366.268 36.7206L365.863 31.0099L365.363 30.9776Z" fill="black"/>
<path d="M376.086 30.4897L372.86 30.7457L372.317 34.6744L371.075 34.7489L371.207 29.6917L382.837 29.2429L383.231 34.2374L382.109 34.2424L381.315 30.3629L378.045 30.4033L378.443 42.2234L381.066 42.3153L381.122 43.247L374.03 43.4857L373.974 42.554L376.389 42.2844L376.086 30.4897Z" fill="black"/>
<path d="M391.922 42.4742C390.979 41.814 390.276 41.0146 389.745 39.9556C389.214 38.8966 389.045 37.6288 389.021 36.1965C389.092 34.7896 389.423 33.5542 390.014 32.4902C390.605 31.4262 391.43 30.6286 392.489 30.0975C393.548 29.5664 394.651 29.2509 395.963 29.2968C396.869 29.3359 398.06 29.4514 399.391 29.8079L399.961 29.9607L399.665 33.3447L398.448 33.3242L398.058 30.9788C397.894 30.8328 397.634 30.6614 397.159 30.5341C396.684 30.4068 396.183 30.3745 395.587 30.3167C394.776 30.3031 394.104 30.5304 393.476 30.9733C392.848 31.4162 392.359 32.1001 391.94 32.9044C391.59 33.8293 391.336 34.7797 391.29 36.0915C391.269 37.3083 391.395 38.3605 391.666 39.248C391.938 40.1356 392.425 40.9791 393.083 41.563C393.742 42.1468 394.476 42.4456 395.383 42.4847C396.099 42.4729 396.504 42.4797 396.935 42.3915C397.272 42.2778 397.608 42.1641 397.874 41.93L398.668 40.1057L399.834 40.3162L399.337 42.933C399.026 42.9517 398.69 43.0654 398.164 43.1281C397.733 43.2163 397.277 43.3996 396.871 43.3927C396.44 43.481 395.939 43.4487 395.318 43.486C394.006 43.44 392.866 43.1345 391.922 42.4742Z" fill="black"/>
<path d="M407.528 29.8492L407.489 30.7555L405.625 30.8673L404.942 40.2588L406.65 38.0681L412.482 31.8895L412.514 31.3889L410.873 31.051L410.912 30.1448L416.013 30.4931L415.974 31.3994L414.516 31.518L413.748 43.1276L415.294 43.44L415.255 44.3462L410.059 43.9725L410.098 43.0662L411.746 42.9985L412.359 33.4865L410.798 35.5126L404.846 41.7607L404.762 42.4514L406.524 42.7197L406.485 43.6259L401.193 43.2267L401.232 42.3204L402.785 42.2272L403.553 30.6177L402.102 30.3307L402.142 29.4245L407.528 29.8492Z" fill="black"/>
<path d="M427.806 31.7177L427.414 36.6036L426.127 36.4626L426.024 32.6662L421.905 32.0719L420.586 43.8393L423.798 44.3945L423.664 45.2752L416.352 44.4363L416.486 43.5555L418.514 43.5896L419.757 32.1074L417.856 31.5981L417.99 30.7173L427.806 31.7177Z" fill="black"/>
<path d="M430.954 33.2743L429.554 32.7973L429.688 31.9165L434.688 32.645L434.553 33.5258L432.931 33.4985L432.203 38.498L438.653 39.5134L439.381 34.5139L437.886 34.0114L438.021 33.1307L443.02 33.8591L442.886 34.7399L441.359 34.7381L439.615 46.188L441.04 46.57L440.906 47.4508L435.907 46.7223L436.041 45.8415L437.568 45.8434L438.398 40.4637L431.948 39.4483L431.118 44.828L432.733 45.2608L432.599 46.1416L427.504 45.3877L427.639 44.5069L429.166 44.5087L430.954 33.2743Z" fill="black"/>
<path d="M449.774 35.2615L451.795 35.7012L453.668 49.2406L454.783 49.6412L454.649 50.5219L449.821 49.5338L449.955 48.6531L451.552 48.7754L451.219 45.8343L445.916 44.7189L444.512 47.2966L446.007 47.7991L445.873 48.6799L441.52 47.8191L441.654 46.9383L442.871 46.9588L449.774 35.2615ZM450.366 38.374L450.203 36.7006L449.485 38.2398L446.481 43.7499L451.119 44.6871L450.366 38.374Z" fill="black"/>
<path d="M460.465 46.6821C459.842 48.2468 459.105 49.4754 458.401 50.2034C457.988 50.6021 457.627 50.8108 457.291 50.9245C456.955 51.0382 456.549 51.0314 456.074 50.904C455.504 50.7513 455.029 50.6239 454.769 50.4525L454.961 48.9761C455.246 49.0525 455.721 49.1798 456.292 49.3326C456.482 49.3835 456.697 49.3394 456.913 49.2953C457.128 49.2512 457.274 49.0866 457.541 48.8524C458.778 47.6561 460.042 44.8374 461.144 40.3453L461.526 38.9198L459.53 38.3851L459.785 37.4347L470.29 40.0457L470.035 40.9961L468.248 40.8228L465.433 52.0877L467.188 52.7616L466.959 53.6169L461.327 52.2095L461.556 51.3542L463.507 51.6735L466.322 40.4086L462.59 39.5105L462.157 41.1261C461.718 43.1472 461.088 45.1175 460.465 46.6821Z" fill="black"/>
<path d="M476.536 47.5252C477.936 48.0022 478.975 48.6879 479.557 49.5569C480.139 50.4258 480.239 51.5731 479.813 52.783C479.336 54.1831 478.58 55.1011 477.547 55.5372C476.393 56.0428 475.176 56.0223 473.75 55.6404C473.56 55.5894 473.37 55.5385 473.18 55.4876C472.99 55.4367 472.8 55.3857 472.541 55.2143C471.901 54.941 471.235 54.7628 470.691 54.515L468.245 53.7578L468.474 52.9025L470.021 53.2149L473.405 42.1028L472.056 41.4358L472.285 40.5804L477.366 42.1456L477.137 43.0009L475.281 42.7071L473.97 46.8377L476.536 47.5252ZM472.7 54.2385C472.89 54.2894 473.245 54.4863 473.625 54.5882C474.67 54.8683 475.482 54.8819 476.205 54.4645C476.927 54.0471 477.416 53.3632 477.696 52.3178C477.977 51.2725 477.965 50.5563 477.547 49.8333C477.199 49.2308 476.516 48.742 475.496 48.3669L473.69 47.8831L471.87 53.9143C472.25 54.0161 472.51 54.1876 472.7 54.2385ZM489.334 45.7597L489.105 46.615L487.343 46.3467L483.958 57.4588L485.592 58.2023L485.363 59.0576L480.092 57.4415L480.321 56.5862L482.058 56.9495L485.442 45.8374L483.808 45.0939L484.037 44.2386L489.334 45.7597Z" fill="black"/>
<path d="M497.023 49.7553L495.699 48.9932L496.023 48.1634L500.743 49.9372L500.419 50.7671L498.873 50.4547L497.099 55.1741L503.288 57.5454L505.062 52.826L503.738 52.0639L504.062 51.2341L508.782 53.0079L508.457 53.8377L507.006 53.5508L502.861 64.4592L504.21 65.1263L503.886 65.9561L499.167 64.1823L499.491 63.3524L501.012 63.7599L502.982 58.6858L496.793 56.3145L494.823 61.3885L496.241 62.1761L495.917 63.0059L491.128 61.1116L491.452 60.2818L492.973 60.6892L497.023 49.7553Z" fill="black"/>
<path d="M515.015 55.5946L516.934 56.4144L515.916 70.0961L516.86 70.7564L516.536 71.5862L511.988 69.5527L512.312 68.7229L513.807 69.2254L514.191 66.2725L509.168 64.1117L507.27 66.2515L508.689 67.0391L508.365 67.8689L504.266 66.0578L504.59 65.228L505.731 65.5335L515.015 55.5946ZM514.96 58.8394L515.203 57.1729L514.13 58.5152L510.018 63.2191L514.401 65.1066L514.96 58.8394Z" fill="black"/>
<path d="M528.726 63.343L527.004 62.1685L527.423 61.3641L531.8 63.6572L530.294 72.3189L529.752 74.7202L531.358 72.9096L537.525 66.6174L541.902 68.9105L541.483 69.7149L539.538 68.9901L535.488 79.924L536.855 80.9016L536.436 81.706L531.705 79.2159L532.124 78.4116L533.689 79.0345L536.804 71.2113L538.126 67.7969L536.159 69.8163L528.925 77.0452L527.861 76.4545L529.356 67.0766L530.013 63.484L528.076 66.5301L523.517 73.6607L525.075 74.6893L524.656 75.4937L520.374 73.226L520.793 72.4216L522.263 73.0191L528.726 63.343Z" fill="black"/>
<path d="M548.096 72.4037L549.844 73.4832L547.255 86.9475L548.198 87.6077L547.779 88.4121L543.548 85.9544L543.967 85.15L545.437 85.7475L546.081 82.9661L541.426 80.191L539.269 82.1594L540.541 83.1115L540.122 83.9159L536.341 81.6805L536.76 80.8762L537.875 81.2768L548.096 72.4037ZM547.661 75.5466L548.094 73.931L546.857 75.1274L542.156 79.3679L546.291 81.8002L547.661 75.5466Z" fill="black"/>
<path d="M556.365 78.7953L555.308 77.7991L555.822 77.0202L557.899 78.3916C558.254 78.5885 558.678 78.9059 559.033 79.1027C559.647 79.4711 560.192 79.7189 560.711 80.0617C562.174 81.0648 563.136 82.0356 563.382 83.0182C563.628 84.0009 563.443 85.0717 562.757 86.1103C562.218 86.9842 561.564 87.5221 560.746 87.9141C559.928 88.306 559.091 88.3874 558.211 88.2533C557.33 88.1191 556.405 87.7694 555.531 87.2297C555.176 87.0328 554.917 86.8614 554.588 86.5695C554.233 86.3726 554.068 86.2266 553.999 86.1061L551.745 89.5764L553.771 91.1379L553.257 91.9168L548.133 88.6088L548.648 87.8299L550.092 88.5224L556.365 78.7953ZM556.045 86.4508C556.919 86.9905 557.68 87.1942 558.542 87.0178C559.404 86.8414 560.178 86.2339 560.914 85.0053C561.454 84.1314 561.683 83.2761 561.456 82.604C561.229 81.9319 560.691 81.2785 559.747 80.6183C559.392 80.4214 559.038 80.2245 558.588 80.0021C558.328 79.8307 558.138 79.7798 558.138 79.7798L554.513 85.3272C554.842 85.6191 555.266 85.9365 556.045 86.4508Z" fill="black"/>
<path d="M560.774 96.1721C560.338 95.1385 560.238 93.9913 560.423 92.9205C560.608 91.8496 561.155 90.5701 561.987 89.3669C562.793 88.2588 563.738 87.3917 564.797 86.8606C565.856 86.3295 567.029 86.1344 568.22 86.2499C569.412 86.3654 570.527 86.7661 571.54 87.5468C572.319 88.0611 573.211 88.9114 574.078 89.8567L574.572 90.2946L572.452 92.8841L571.414 92.1984L572.405 90.0195C572.361 89.804 572.127 89.5375 571.918 89.176C571.709 88.8145 571.19 88.4717 570.671 88.1288C569.987 87.64 569.322 87.4617 568.51 87.4481C567.699 87.4345 566.907 87.7314 566.158 88.2438C565.41 88.7563 564.585 89.5538 563.925 90.4973C563.264 91.4408 562.794 92.4353 562.445 93.3602C562.19 94.3105 562.056 95.1913 562.327 96.0788C562.599 96.9664 563.042 97.5944 563.82 98.1087C564.34 98.4515 564.764 98.7689 565.144 98.8708C565.524 98.9726 565.809 99.049 566.12 99.0304L567.832 97.9614L568.725 98.8117L566.783 100.736C566.524 100.565 566.144 100.463 565.694 100.24C565.219 100.113 564.864 99.9161 564.389 99.7888C564.034 99.5919 563.584 99.3696 563.065 99.0267C562.078 98.1509 561.21 97.2056 560.774 96.1721Z" fill="black"/>
<path d="M588.034 100.115L587.425 100.868L585.867 99.8399L579.945 107.115L582.608 106.3L590.893 104.65L591.211 104.226L590.109 103.014L590.719 102.26L594.72 105.573L594.111 106.327L592.787 105.565L585.38 114.581L586.507 115.697L585.923 116.356L581.922 113.043L582.506 112.384L583.899 113.267L589.941 105.923L587.494 106.693L578.993 108.387L578.555 108.881L579.751 110.119L579.168 110.777L575.071 107.438L575.655 106.78L576.953 107.637L584.36 98.6213L583.328 97.53L583.938 96.7766L588.034 100.115Z" fill="black"/>
<path d="M597.511 108.46C598.056 108.708 598.385 109 598.74 109.197C599.095 109.394 599.424 109.686 599.684 109.857C600.836 110.879 601.582 111.894 601.828 112.876C602.074 113.859 601.845 114.714 601.141 115.442C600.436 116.17 599.714 116.588 598.807 116.549C597.971 116.63 597.115 116.401 596.336 115.886C597.134 116.711 597.621 117.555 597.702 118.391C597.784 119.228 597.46 120.058 596.876 120.716C596 121.704 594.941 122.235 593.845 122.145C592.723 122.15 591.564 121.534 590.152 120.341C589.563 119.877 589.19 119.37 588.816 118.862C588.443 118.355 588.234 117.994 588 117.727C587.861 117.486 587.722 117.245 587.652 117.125L590.076 114.922L590.734 115.506L589.553 117.634C589.78 118.306 590.318 118.959 591.046 119.664C591.705 120.248 592.249 120.495 592.991 120.388C593.638 120.256 594.335 119.934 594.945 119.18C595.503 118.617 595.681 117.952 595.764 117.261C595.848 116.57 595.335 115.822 594.512 115.092L593.525 114.216L594.229 113.488L595.052 114.218C595.476 114.536 595.9 114.853 596.376 114.98C596.851 115.108 597.351 115.14 597.903 114.982C598.454 114.824 598.841 114.521 599.279 114.027C599.863 113.368 600.111 112.824 599.979 112.177C599.941 111.556 599.568 111.048 598.91 110.465C598.511 110.052 598.156 109.855 597.707 109.633C597.352 109.436 597.041 109.455 596.826 109.499L595.424 110.549L594.506 109.794L596.334 107.533C596.637 107.92 596.992 108.117 597.511 108.46Z" fill="black"/>
<path d="M608.652 120.103L607.766 118.847L608.445 118.214L610.205 120.01C610.534 120.302 610.933 120.714 611.426 121.152C611.92 121.59 612.249 121.882 612.414 122.028C613.61 123.265 614.357 124.28 614.413 125.212C614.589 126.074 614.265 126.904 613.561 127.632C612.882 128.265 612.184 128.587 611.443 128.694C610.701 128.801 609.846 128.571 609.067 128.057C609.959 128.907 610.446 129.751 610.502 130.683C610.558 131.614 610.259 132.349 609.555 133.077C608.705 133.97 607.576 134.38 606.48 134.29C605.289 134.175 603.965 133.413 602.509 132.004C602.18 131.712 601.876 131.325 601.642 131.059C601.009 130.38 600.61 129.967 600.446 129.821L598.686 128.026L599.365 127.393L600.637 128.345L608.652 120.103ZM603.118 131.251C604.011 132.101 604.79 132.615 605.601 132.629C606.412 132.642 607.11 132.32 607.789 131.687C608.467 131.054 608.766 130.319 608.729 129.698C608.692 129.077 608.274 128.354 607.477 127.529C606.584 126.679 606.021 126.121 605.787 125.854L601.878 129.798C601.922 130.013 602.416 130.451 603.118 131.251ZM607.339 125.761L608.067 126.465C608.726 127.049 609.34 127.417 609.961 127.38C610.582 127.343 611.28 127.02 611.864 126.362C612.448 125.704 612.79 125.184 612.753 124.563C612.716 123.942 612.298 123.219 611.57 122.515C611.241 122.223 610.912 121.931 610.488 121.614L610.159 121.322L606.516 125.031C606.706 125.082 606.941 125.348 607.339 125.761Z" fill="black"/>
<path d="M620.953 130.835L622.383 132.338L616 144.378L616.651 145.368L615.972 146.001L612.668 142.365L613.347 141.732L614.5 142.754L615.998 140.202L612.296 136.154L609.626 137.374L610.607 138.655L609.928 139.288L606.928 136.04L607.607 135.407L608.525 136.162L620.953 130.835ZM619.473 133.697L620.381 132.209L618.84 133.018L613.139 135.667L616.373 139.182L619.473 133.697Z" fill="black"/>
<path d="M618.397 147.975C618.202 146.802 618.387 145.731 618.883 144.642C619.379 143.552 620.159 142.539 621.32 141.628C622.386 140.691 623.54 140.186 624.738 139.896C625.936 139.606 627.128 139.721 628.243 140.122C629.358 140.522 630.301 141.183 631.143 142.223C631.75 142.997 632.402 143.986 633.003 145.166L633.255 145.743L630.572 147.774L629.8 146.854L631.336 144.923C631.292 144.707 631.273 144.397 631.065 144.035C630.856 143.674 630.578 143.192 630.179 142.779C629.641 142.126 629.027 141.758 628.266 141.554C627.506 141.35 626.669 141.432 625.782 141.703C624.894 141.975 623.93 142.531 623.01 143.303C622.09 144.075 621.361 144.898 620.846 145.677C620.307 146.551 620.077 147.407 620.064 148.218C620.05 149.029 620.347 149.821 620.955 150.595C621.423 151.128 621.752 151.42 622.107 151.617C622.462 151.814 622.721 151.985 623.032 151.967L624.927 151.354L625.579 152.344L623.264 153.761C623.099 153.615 622.77 153.323 622.346 153.005C621.896 152.783 621.567 152.491 621.238 152.199C620.909 151.907 620.484 151.59 620.111 151.082C619.123 150.207 618.592 149.148 618.397 147.975Z" fill="black"/>
<path d="M637.421 154.905C638.568 154.805 639.544 154.965 640.469 155.315C641.394 155.664 642.217 156.394 642.824 157.168C643.571 158.183 643.937 159.096 644.063 160.148C644.093 161.175 643.934 162.151 643.368 163.12C642.803 164.089 642.048 165.007 640.912 165.823C639.752 166.734 638.477 167.309 637.279 167.6C636.081 167.89 634.984 167.8 633.869 167.399C632.754 166.998 632.001 166.389 631.324 165.495C630.577 164.48 630.141 163.446 630.016 162.394C629.89 161.342 630.145 160.391 630.615 159.397C631.18 158.428 631.936 157.51 632.976 156.668L631.179 154.252L626.827 157.567L627.662 159.013L626.914 159.526L623.832 155.441L624.581 154.928L625.707 156.045L634.918 149.04L634.153 147.715L634.927 147.107L637.939 151.072L637.165 151.679L636.038 150.563L632.073 153.575L633.87 155.991C635.24 155.442 636.343 155.126 637.421 154.905ZM639.041 156.46C637.799 156.535 636.309 157.154 634.641 158.439C633.213 159.584 632.217 160.641 631.791 161.851C631.365 163.061 631.49 164.113 632.237 165.128C633.009 166.048 633.909 166.493 635.176 166.323C636.419 166.249 637.839 165.509 639.482 164.319C640.909 163.174 641.906 162.117 642.332 160.907C642.758 159.697 642.632 158.645 641.955 157.75C641.278 156.856 640.284 156.386 639.041 156.46Z" fill="black"/>
<path d="M645.37 174.657C645.166 175.417 644.696 176.412 644.175 177.596C643.756 178.401 643.577 179.066 643.38 179.42C643.279 179.801 643.177 180.181 643.246 180.301L643.474 180.973L642.725 181.486L641.397 179.602C641.257 179.361 641.264 178.955 641.512 178.411C641.76 177.866 642.084 177.036 642.554 176.041C643.17 174.882 643.52 173.958 643.793 173.318C644.067 172.678 644.004 172.152 643.89 171.816L643.239 170.826L638.868 173.832L639.583 175.347L638.834 175.86L635.994 171.635L636.742 171.123L637.749 172.309L647.332 165.812L646.688 164.417L647.436 163.904L650.207 168.008L649.459 168.521L648.452 167.334L643.987 170.314L644.847 171.665L651.432 171.8L650.692 170.379L651.441 169.867L653.977 173.704L653.229 174.216L652.197 173.125L645.448 172.844C645.631 173.301 645.574 173.897 645.37 174.657Z" fill="black"/>
<path d="M644.997 184.03C645.062 183.028 645.342 181.983 646.097 181.065C646.758 180.121 647.703 179.254 648.908 178.559C650.138 177.768 651.362 177.383 652.509 177.283C653.751 177.208 654.822 177.393 655.817 177.863C656.811 178.334 657.634 179.063 658.26 180.148C659.234 181.835 659.543 183.344 659.015 184.934C658.513 186.429 657.345 187.746 655.512 188.884C654.282 189.675 653.058 190.06 651.79 190.23C650.548 190.304 649.477 190.119 648.388 189.623C647.393 189.153 646.596 188.328 645.944 187.339C645.248 186.134 645.028 185.056 644.997 184.03ZM654.535 178.844C653.319 178.824 651.759 179.323 650.047 180.392C648.455 181.391 647.363 182.423 646.842 183.607C646.226 184.766 646.352 185.818 646.978 186.903C647.629 187.892 648.598 188.458 649.815 188.478C651.127 188.524 652.591 188 654.304 186.931C655.896 185.931 656.987 184.9 657.508 183.715C658.004 182.626 657.999 181.504 657.373 180.419C656.721 179.43 655.847 178.89 654.535 178.844Z" fill="black"/>
<path d="M662.027 188.898L661.503 187.434L662.346 186.947L663.599 189.116C663.807 189.477 664.086 189.959 664.459 190.467C664.832 190.974 665.041 191.336 665.18 191.577C665.989 193.118 666.4 194.246 666.24 195.222C666.081 196.198 665.617 196.787 664.748 197.369C664.025 197.786 663.163 197.962 662.378 197.854C661.592 197.745 660.883 197.351 660.275 196.577C660.901 197.662 661.078 198.524 660.918 199.5C660.784 200.381 660.2 201.039 659.356 201.526C658.272 202.152 657.125 202.252 656.01 201.852C654.895 201.451 653.863 200.36 652.82 198.552C652.611 198.191 652.428 197.734 652.219 197.373C651.732 196.529 651.479 195.952 651.41 195.832L650.157 193.663L650.975 193.271L651.861 194.527L662.027 188.898ZM653.568 198.04C654.194 199.124 654.827 199.803 655.587 200.007C656.348 200.21 657.089 200.104 657.933 199.617C658.776 199.13 659.24 198.541 659.392 197.971C659.545 197.4 659.369 196.538 658.812 195.574C658.186 194.49 657.769 193.767 657.63 193.526L652.74 196.188C652.828 196.619 653.081 197.196 653.568 198.04ZM659.15 193.933L659.612 194.872C660.029 195.595 660.618 196.058 661.188 196.211C661.853 196.389 662.5 196.257 663.343 195.77C664.066 195.352 664.504 194.859 664.657 194.288C664.81 193.718 664.608 192.951 664.051 191.987C663.843 191.626 663.539 191.239 663.356 190.782L663.147 190.421L658.594 192.969C658.733 193.21 658.872 193.451 659.15 193.933Z" fill="black"/>
<path d="M676.586 214.393L675.768 214.785L674.907 213.434L664.489 218.485L665.057 220.165L664.239 220.557L661.957 215.77L662.775 215.378L663.635 216.729L674.149 211.703L671.519 206.313L660.98 211.433L661.548 213.114L660.73 213.506L658.423 208.813L659.241 208.421L660.031 209.651L670.45 204.6L669.951 203.041L670.769 202.649L676.586 214.393Z" fill="black"/>
<path d="M666.282 223.957C666.467 222.886 667.007 222.012 667.737 221.189C668.561 220.391 669.576 219.645 670.851 219.07C672.125 218.494 673.419 218.23 674.61 218.345C675.801 218.461 676.847 218.741 677.79 219.401C678.734 220.061 679.411 220.956 679.847 221.989C680.58 223.816 680.673 225.368 679.886 226.787C679.193 228.231 677.766 229.377 675.819 230.179C674.449 230.729 673.156 230.993 671.965 230.878C670.774 230.762 669.633 230.457 668.69 229.797C667.746 229.136 667.069 228.242 666.538 227.183C666.222 226.08 666.027 224.907 666.282 223.957ZM676.439 220.261C675.178 220.025 673.67 220.334 671.723 221.137C669.992 221.895 668.736 222.781 668.05 223.82C667.365 224.858 667.18 225.929 667.685 227.083C668.191 228.237 669.039 228.872 670.3 229.108C671.561 229.344 673.165 229.061 675.016 228.233C676.748 227.474 678.003 226.588 678.689 225.55C679.375 224.511 679.465 223.415 679.054 222.286C678.549 221.132 677.7 220.497 676.439 220.261Z" fill="black"/>
<path d="M676.192 236.39C674.468 236.743 673.105 236.887 672.129 236.728C671.654 236.6 671.179 236.473 670.944 236.207C670.615 235.915 670.381 235.648 670.198 235.192C669.945 234.615 669.857 234.184 669.838 233.873L671.233 233.228C671.252 233.539 671.435 233.995 671.688 234.572C671.732 234.788 671.897 234.934 672.061 235.08C672.226 235.226 672.416 235.277 672.701 235.353C674.437 235.717 677.455 235.099 681.658 233.475L683.028 232.926L682.466 230.84L683.379 230.473L687.195 240.561L686.282 240.928L685.473 239.387L674.592 243.499L675.04 245.249L674.153 245.52L672.144 240.093L673.032 239.822L673.885 241.578L684.765 237.465L683.464 233.959L681.879 234.553C679.786 235.52 677.916 236.038 676.192 236.39Z" fill="black"/>
<path d="M687.273 244.452L686.964 242.944L687.852 242.672L690.826 251.72L688.182 252.844L687.841 251.836L689.363 250.716L688.006 246.278L682.991 247.889L684.04 250.818L685.618 250.63L685.959 251.638L681.832 252.976L681.49 251.968L682.911 251.228L681.983 248.23L676.727 249.979L678.553 254.95L681.151 255.137L681.156 256.258L677.879 256.704L674.608 246.865L675.495 246.593L676.14 247.988L687.273 244.452Z" fill="black"/>
<path d="M692.059 259.282L691.036 256.258L687.043 256.715L686.753 255.517L691.615 254.477L694.815 265.724L690.015 267.29L689.7 266.187L693.308 264.506L692.526 261.342L681.184 264.516L681.713 267.103L680.825 267.374L678.888 260.54L679.776 260.268L680.597 262.526L692.059 259.282Z" fill="black"/>
<path d="M689.118 275.198L688.942 274.336C688.708 274.07 688.233 273.943 687.567 273.764C686.902 273.586 686.116 273.477 685.141 273.318C684.165 273.158 683.5 272.98 683.024 272.853C682.549 272.725 682.29 272.554 682.246 272.338L681.691 269.847L682.553 269.67L682.875 270.368C682.945 270.489 683.205 270.66 683.559 270.857C683.939 270.959 684.51 271.111 685.244 271.41C686.1 271.639 686.86 271.843 687.525 272.021C688.07 272.269 688.52 272.492 688.849 272.783C688.888 271.877 689.187 271.142 689.65 270.554C690.234 269.895 690.957 269.478 691.819 269.301C693.233 268.967 694.399 269.178 695.127 269.882C695.855 270.586 696.455 271.766 696.833 273.395C696.947 273.731 697.01 274.257 697.073 274.783C697.11 275.404 697.198 275.835 697.312 276.172L697.936 278.783L697.049 279.055L696.429 277.565L685.12 280.238L685.378 281.937L684.541 282.019L683.223 276.674L684.085 276.498L684.653 278.178L689.446 277.018L689.118 275.198ZM696.116 274.934C696.053 274.408 695.99 273.882 695.902 273.451C695.656 272.468 695.308 271.866 694.814 271.428C694.32 270.99 693.509 270.976 692.527 271.222C691.544 271.468 690.821 271.886 690.453 272.5C690.084 273.114 689.976 273.9 690.222 274.883C690.468 275.865 690.6 276.512 690.739 276.753L696.299 275.391L696.116 274.934Z" fill="black"/>
<path d="M698.302 285.4L697.615 282.262L693.603 282.41L693.408 281.237L698.359 280.628L700.601 292.026L695.713 293.161L695.518 291.988L699.24 290.643L698.769 287.461L687.181 289.652L687.495 292.283L686.633 292.459L685.247 285.467L686.109 285.291L686.809 287.617L698.302 285.4Z" fill="black"/>
<path d="M688.94 302.855C689.41 301.861 690.165 300.943 691.129 300.386C692.118 299.735 693.342 299.35 694.73 299.11C696.093 298.966 697.405 299.012 698.494 299.508C699.609 299.908 700.527 300.664 701.299 301.584C702.071 302.503 702.482 303.632 702.652 304.9C702.803 305.857 702.808 306.979 702.641 308.36L702.583 308.956L699.262 309.186L699.093 307.919L701.35 307.097C701.496 306.933 701.598 306.553 701.604 306.147C701.611 305.741 701.669 305.146 701.511 304.594C701.404 303.853 701.082 303.155 700.519 302.597C699.955 302.038 699.246 301.644 698.296 301.39C697.345 301.135 696.319 301.166 695.076 301.24C693.904 301.435 692.921 301.681 691.982 302.143C691.044 302.604 690.391 303.142 689.902 303.826C689.413 304.51 689.279 305.391 689.36 306.227C689.492 306.874 689.555 307.4 689.764 307.762C689.878 308.098 690.112 308.364 690.346 308.631L692.247 309.14L692.226 310.357L689.507 310.239C689.463 310.024 689.375 309.593 689.097 309.111C688.914 308.654 688.705 308.293 688.617 307.862C688.528 307.431 688.345 306.974 688.308 306.353C688.328 305.136 688.444 303.945 688.94 302.855Z" fill="black"/>
<path d="M703.842 316.423L702.91 316.479L702.488 314.634L693.095 315.479L695.482 316.832L702.562 321.581L703.088 321.518L703.141 319.8L704.073 319.744L704.536 324.859L703.604 324.915L703.27 323.502L691.677 324.572L691.65 326.194L690.718 326.25L690.281 321.04L691.212 320.984L691.59 322.613L701.079 321.794L698.761 320.562L691.611 315.692L690.99 315.73L690.938 317.447L690.006 317.503L689.568 312.293L690.5 312.237L690.809 313.746L702.402 312.676L702.499 311.174L703.43 311.118L703.842 316.423Z" fill="black"/>
<path d="M705.123 336.73L700.249 337.054L700.175 335.812L703.934 335.087L703.907 331.006L692.156 331.524L692.102 334.769L691.17 334.825L690.792 327.492L691.724 327.436L692 329.445L703.561 328.876L703.69 326.874L704.622 326.818L705.123 336.73Z" fill="black"/>
<path d="M704.042 340.006L704.234 338.529L705.14 338.568L705.102 343.651L704.196 343.612L704.008 342.034L699.02 342.021L698.981 348.631L703.968 348.644L704.16 347.167L705.066 347.206L705.054 352.194L704.148 352.155L703.934 350.672L692.311 350.715L692.119 352.191L691.213 352.152L691.225 347.164L692.131 347.204L692.32 348.782L697.713 348.801L697.752 342.191L692.359 342.172L692.142 343.743L691.236 343.704L691.178 338.596L692.085 338.635L692.298 340.118L704.042 340.006Z" fill="black"/>
<path d="M705.084 358.925L705.05 360.953L691.977 364.885L691.767 366.051L690.86 366.012L691.063 361.075L691.969 361.114L692.062 362.667L694.915 361.904L695.15 356.466L692.47 355.443L692.253 357.014L691.346 356.975L691.517 352.539L692.423 352.578L692.523 353.725L705.084 358.925ZM702.034 360.043L703.664 359.664L701.978 359.111L696.049 356.911L695.803 361.632L702.034 360.043Z" fill="black"/>
<path d="M695.449 371.316C693.738 370.858 692.528 370.431 691.68 369.797C691.255 369.479 690.926 369.187 690.812 368.851C690.604 368.49 690.611 368.084 690.617 367.679C690.675 367.083 690.682 366.677 690.853 366.418L692.381 366.42C692.304 366.705 692.272 367.205 692.214 367.801C692.163 367.991 692.208 368.207 692.347 368.448C692.391 368.663 692.555 368.809 692.815 368.98C694.157 370.053 697.224 370.773 701.704 371.159L703.206 371.255L703.576 369.114L704.482 369.153L703.538 379.9L702.632 379.861L702.589 378.118L691.056 377.065L690.667 378.896L689.761 378.857L690.288 373.091L691.194 373.13L691.185 375.063L702.718 376.116L703.021 372.326L701.329 372.178C699.041 371.973 697.09 371.654 695.449 371.316Z" fill="black"/>
<path d="M697.09 387.238C696.898 388.714 696.377 389.899 695.483 390.576C694.683 391.278 693.606 391.499 692.319 391.358C690.938 391.191 689.899 390.506 689.248 389.516C688.596 388.527 688.427 387.259 688.619 385.783C688.669 385.593 688.72 385.403 688.676 385.187C688.632 384.972 688.778 384.807 688.855 384.522C689.033 383.857 689.116 383.166 689.269 382.596L689.646 380.048L690.527 380.183L690.499 381.805L702.07 383.479L702.572 381.984L703.453 382.118L702.648 387.403L701.767 387.269L701.655 385.405L697.347 384.76L697.09 387.238ZM689.856 384.586C689.805 384.776 689.703 385.157 689.696 385.562C689.511 386.633 689.713 387.4 690.251 388.054C690.789 388.707 691.498 389.101 692.594 389.191C693.57 389.35 694.432 389.174 694.965 388.706C695.593 388.263 695.892 387.528 696.077 386.457L696.371 384.601L690.085 383.731C689.983 384.111 689.907 384.396 689.856 384.586ZM700.796 399.639L699.915 399.504L699.967 397.787L688.492 396.138L688.034 397.849L687.153 397.715L687.888 392.31L688.769 392.444L688.716 394.161L700.192 395.81L700.65 394.099L701.531 394.234L700.796 399.639Z" fill="black"/>
<path d="M697.984 407.849L698.557 406.474L699.412 406.703L698.278 411.696L697.422 411.467L697.545 409.87L692.647 408.761L691.226 415.205L696.124 416.314L696.696 414.939L697.551 415.168L696.443 420.066L695.587 419.837L695.684 418.335L684.317 415.9L683.84 417.3L682.985 417.071L684.094 412.173L684.949 412.403L684.852 413.905L690.155 415.02L691.576 408.576L686.273 407.461L685.745 409.051L684.89 408.822L686.024 403.829L686.879 404.058L686.782 405.56L697.984 407.849Z" fill="black"/>
<path d="M694.952 426.389L694.417 428.385L680.84 429.636L680.345 430.725L679.489 430.496L680.668 425.719L681.523 425.948L681.306 427.52L684.196 427.377L685.501 422.125L683.044 420.652L682.446 422.121L681.591 421.892L682.642 417.59L683.497 417.82L683.382 419.011L694.952 426.389ZM691.795 426.765L693.538 426.723L692.024 425.91L686.686 422.646L685.558 427.233L691.795 426.765Z" fill="black"/>
<path d="M689.427 441.308L690.341 439.414L691.171 439.738L689.613 444.413L680.81 444.193L678.402 444.058L680.505 445.334L687.673 450.514L686.114 455.189L685.285 454.865L685.724 452.844L674.212 450.574L673.519 452.018L672.689 451.694L674.375 446.543L675.205 446.868L674.867 448.509L683.116 450.413L686.683 451.166L684.372 449.528L676.121 443.446L676.522 442.331L685.997 442.324L689.742 442.411L686.379 440.898L678.632 437.498L677.863 439.228L677.033 438.903L678.566 434.323L679.396 434.647L679.083 436.193L689.427 441.308Z" fill="black"/>
<path d="M683.495 461.923L682.771 463.868L669.152 463.376L668.586 464.345L667.757 464.021L669.6 459.422L670.43 459.746L670.022 461.267L672.931 461.435L674.902 456.361L672.642 454.533L671.854 455.952L671.024 455.627L672.645 451.478L673.475 451.802L673.265 452.968L683.495 461.923ZM680.251 461.868L681.943 462.016L680.575 461.038L675.725 457.091L674.027 461.525L680.251 461.868Z" fill="black"/>
<path d="M678.427 470.954L679.259 469.751L680.089 470.075L679.072 472.349C678.85 472.799 678.748 473.179 678.551 473.534C678.277 474.174 678.125 474.744 677.877 475.289C677.133 476.923 676.353 477.936 675.414 478.397C674.501 478.764 673.474 478.794 672.195 478.248C671.295 477.803 670.612 477.314 670.099 476.566C669.587 475.817 669.385 475.05 669.329 474.119C669.273 473.187 669.528 472.237 669.972 471.337C670.169 470.982 670.246 470.697 670.442 470.343C670.639 469.988 670.69 469.798 670.811 469.728L667.067 468.114L665.86 470.337L665.03 470.013L667.534 464.471L668.364 464.795L667.862 466.29L678.427 470.954ZM670.872 471.782C670.427 472.681 670.413 473.492 670.685 474.38C670.956 475.268 671.71 475.877 672.989 476.423C673.984 476.894 674.795 476.907 675.372 476.655C676.069 476.332 676.558 475.648 677.028 474.654C677.225 474.299 677.327 473.919 677.454 473.444C677.531 473.159 677.582 472.969 677.607 472.874L671.495 470.217C671.418 470.502 671.17 471.047 670.872 471.782Z" fill="black"/>
<path d="M661.96 478.052C662.924 477.495 664.027 477.18 665.149 477.175C666.365 477.195 667.601 477.526 668.855 478.168C670.109 478.809 671.122 479.59 671.774 480.579C672.52 481.594 672.836 482.697 672.936 483.845C673.036 484.992 672.825 486.158 672.209 487.317C671.765 488.216 671.104 489.16 670.298 490.268L669.955 490.787L667.023 489.187L667.519 488.097L669.894 488.734C670.11 488.69 670.376 488.455 670.668 488.126C670.96 487.797 671.183 487.347 671.525 486.828C671.919 486.119 672.002 485.428 671.826 484.566C671.719 483.824 671.302 483.101 670.694 482.327C670.061 481.648 669.213 481.014 668.054 480.398C666.964 479.902 665.944 479.527 664.969 479.367C663.993 479.208 663.061 479.263 662.243 479.655C661.451 479.952 660.892 480.516 660.447 481.415C660.174 482.055 659.952 482.505 659.945 482.91C659.843 483.29 659.862 483.601 659.975 483.937L661.311 485.415L660.651 486.359L658.434 484.746C658.511 484.461 658.613 484.081 658.74 483.606C658.867 483.131 658.874 482.725 659.001 482.25C659.103 481.87 659.351 481.325 659.599 480.78C660.215 479.621 660.97 478.703 661.96 478.052Z" fill="black"/>
<path d="M662.332 505.551L661.553 505.037L662.322 503.307L654.216 498.589L655.392 501.043L658.336 509.064L658.785 509.286L659.858 507.944L660.637 508.458L658.033 512.853L657.254 512.339L657.826 510.964L647.782 505.115L646.83 506.388L646.025 505.969L648.654 501.479L649.459 501.898L648.741 503.437L656.917 508.276L655.69 506.012L652.772 497.896L652.157 497.528L651.059 498.965L650.255 498.546L652.91 493.961L653.714 494.38L653.116 495.85L663.161 501.699L664.088 500.521L664.866 501.035L662.332 505.551Z" fill="black"/>
<path d="M655.615 516.177C655.367 516.722 655.239 517.197 655.042 517.552C654.846 517.907 654.649 518.261 654.477 518.521C653.62 519.819 652.77 520.712 651.857 521.078C650.944 521.445 650.037 521.406 649.164 520.866C648.29 520.326 647.872 519.603 647.696 518.741C647.519 517.879 647.628 517.093 647.978 516.168C647.317 517.112 646.544 517.719 645.681 517.896C644.819 518.072 644.034 517.963 643.255 517.449C642.121 516.738 641.444 515.844 641.344 514.696C641.218 513.644 641.575 512.314 642.604 510.756C642.972 510.142 643.41 509.648 643.848 509.154C644.26 508.755 644.647 508.451 644.913 508.217C645.18 507.983 645.326 507.819 645.421 507.844L647.941 509.843L647.427 510.622L645.127 509.701C644.525 510.048 643.966 510.612 643.306 511.555C642.817 512.239 642.734 512.93 642.866 513.576C642.999 514.223 643.562 514.781 644.436 515.321C645.05 515.689 645.716 515.868 646.457 515.761C647.199 515.654 647.852 515.116 648.392 514.242L649.103 513.109L649.977 513.648L649.437 514.522C649.12 514.947 648.993 515.422 648.865 515.897C648.833 516.397 648.896 516.924 649.079 517.38C649.262 517.837 649.661 518.249 650.18 518.592C650.864 519.081 651.555 519.164 652.106 519.006C652.658 518.848 653.191 518.38 653.68 517.696C653.997 517.272 654.219 516.822 654.226 516.417C654.328 516.036 654.309 515.726 654.17 515.485L652.879 514.222L653.539 513.279L656.022 514.657C655.964 515.253 655.767 515.607 655.615 516.177Z" fill="black"/>
<path d="M645.827 529.139L646.943 528.012L647.722 528.527L646.256 530.578C645.964 530.907 645.742 531.357 645.373 531.971C645.03 532.491 644.833 532.845 644.662 533.105C643.684 534.473 642.739 535.34 641.851 535.611C640.964 535.883 640.083 535.749 639.33 535.139C638.646 534.65 638.108 533.997 637.931 533.135C637.73 532.368 637.838 531.582 638.162 530.752C637.502 531.696 636.728 532.303 635.841 532.575C634.979 532.751 634.098 532.617 633.344 532.008C632.331 531.227 631.775 530.263 631.675 529.116C631.575 527.969 632.077 526.473 633.321 524.872C633.613 524.542 633.81 524.188 634.102 523.858C634.711 523.105 635.054 522.586 635.175 522.516L636.641 520.465L637.42 520.979L636.658 522.302L645.827 529.139ZM633.91 525.335C633.129 526.348 632.875 527.298 632.887 528.014C632.898 528.731 633.411 529.479 634.19 529.993C634.943 530.603 635.703 530.806 636.35 530.674C636.997 530.542 637.65 530.004 638.285 529.155C639.066 528.142 639.459 527.433 639.631 527.173L635.103 523.923C634.983 523.993 634.545 524.486 633.91 525.335ZM639.965 528.587L639.33 529.435C638.841 530.119 638.663 530.785 638.795 531.431C638.928 532.078 639.371 532.706 640.055 533.195C640.738 533.683 641.404 533.862 642.025 533.824C642.576 533.667 643.204 533.224 643.865 532.28C644.156 531.951 644.379 531.501 644.576 531.147L644.773 530.792L640.6 527.738C640.549 527.929 640.282 528.163 639.965 528.587Z" fill="black"/>
<path d="M637.051 542.881L635.807 544.483L622.852 539.993L622.027 540.791L621.274 540.181L624.346 536.319L625.1 536.928L624.242 538.226L626.922 539.25L630.311 534.963L628.704 532.598L627.588 533.724L626.834 533.115L629.589 529.677L630.342 530.286L629.752 531.35L637.051 542.881ZM633.966 541.851L635.531 542.473L634.481 541.072L630.988 535.858L628.062 539.556L633.966 541.851Z" fill="black"/>
<path d="M619.699 543.019C620.802 542.703 621.924 542.698 623.064 543.004C624.205 543.309 625.338 544.021 626.421 544.922C627.503 545.823 628.25 546.838 628.661 547.967C629.071 549.095 629.171 550.242 628.961 551.408C628.75 552.574 628.16 553.638 627.404 554.556C626.795 555.31 625.875 556.082 624.835 556.923L624.327 557.297L621.909 554.917L622.759 554.025L624.887 555.206C625.103 555.162 625.439 555.048 625.826 554.744C626.187 554.536 626.6 554.137 626.943 553.618C627.501 553.054 627.8 552.319 627.814 551.508C627.922 550.723 627.72 549.955 627.233 549.112C626.746 548.268 626.164 547.4 625.151 546.619C624.233 545.863 623.385 545.229 622.46 544.879C621.535 544.529 620.654 544.395 619.818 544.477C618.981 544.558 618.258 544.975 617.649 545.729C617.211 546.223 616.893 546.647 616.791 547.027C616.595 547.382 616.613 547.692 616.537 547.977L617.39 549.734L616.47 550.506L614.787 548.425C614.933 548.261 615.13 547.906 615.378 547.361C615.6 546.912 615.797 546.557 615.994 546.202C616.191 545.848 616.508 545.423 616.946 544.929C617.581 544.081 618.596 543.334 619.699 543.019Z" fill="black"/>
<path d="M615.784 562.952C616.099 564.055 616.13 565.082 615.875 566.032C615.62 566.983 615.176 567.882 614.376 568.585C613.526 569.477 612.562 570.034 611.579 570.28C610.597 570.526 609.501 570.436 608.481 570.061C607.461 569.685 606.422 569 605.435 568.124C604.377 567.128 603.561 565.992 603.176 564.769C602.765 563.64 602.57 562.467 602.851 561.422C603.036 560.351 603.601 559.382 604.331 558.559C605.181 557.667 606.145 557.11 607.153 556.769C608.136 556.523 609.232 556.613 610.252 556.988C611.272 557.363 612.31 558.049 613.298 558.925L615.411 556.741L611.442 552.927L610.16 553.908L609.528 553.229L613.075 549.494L613.733 550.078L612.781 551.351L621.118 559.39L622.279 558.479L622.912 559.158L619.39 562.798L618.757 562.119L619.709 560.846L616.069 557.325L613.956 559.509C614.937 560.79 615.468 561.849 615.784 562.952ZM614.609 564.675C614.319 563.476 613.459 562.126 612.003 560.717C610.711 559.454 609.388 558.692 608.127 558.456C606.866 558.22 605.763 558.536 604.913 559.428C604.062 560.321 603.808 561.271 604.098 562.469C604.388 563.667 605.248 565.018 606.799 566.452C608.091 567.715 609.319 568.452 610.555 568.783C611.79 569.114 612.798 568.773 613.648 567.88C614.499 566.988 614.779 565.942 614.609 564.675Z" fill="black"/>
<path d="M597.512 573.742C596.726 573.634 595.681 573.354 594.446 573.022C593.59 572.793 592.925 572.615 592.45 572.488C592.07 572.386 591.759 572.405 591.518 572.544L590.821 572.866L590.188 572.187L591.838 570.592C592.079 570.453 592.415 570.339 593.08 570.517C593.65 570.67 594.505 570.899 595.646 571.205C596.856 571.631 597.806 571.886 598.592 571.994C599.257 572.173 599.783 572.11 600.075 571.781L600.9 570.983L597.267 567.056L595.89 568.011L595.257 567.332L599.039 563.864L599.672 564.543L598.65 565.695L606.549 574.228L607.805 573.343L608.438 574.022L604.777 577.42L604.144 576.742L605.096 575.469L601.463 571.541L600.251 572.643L601.143 579.197L602.399 578.311L603.032 578.99L599.638 582.155L599.005 581.476L599.932 580.298L599.186 573.58C599.014 573.839 598.298 573.851 597.512 573.742Z" fill="black"/>
<path d="M588.233 574.923C589.285 574.797 590.356 574.982 591.325 575.547C592.414 576.043 593.307 576.893 594.243 577.959C595.18 579.025 595.781 580.205 596.071 581.403C596.361 582.601 596.366 583.723 595.991 584.742C595.616 585.762 595.05 586.731 594.131 587.503C592.678 588.744 591.118 589.243 589.547 589.025C587.975 588.808 586.512 587.805 585.012 586.181C584.076 585.115 583.475 583.935 583.185 582.737C582.895 581.539 582.89 580.417 583.29 579.302C583.596 578.162 584.231 577.313 585.151 576.541C586.147 575.484 587.18 575.048 588.233 574.923ZM594.794 583.505C594.625 582.237 593.885 580.817 592.55 579.339C591.309 577.886 590.106 577.054 588.896 576.628C587.686 576.202 586.608 576.423 585.689 577.195C584.769 577.967 584.394 578.987 584.563 580.254C584.733 581.522 585.472 582.943 586.782 584.516C588.023 585.969 589.226 586.8 590.436 587.227C591.672 587.558 592.749 587.337 593.669 586.565C594.589 585.793 594.964 584.773 594.794 583.505Z" fill="black"/>
<path d="M586.101 592.38L587.427 591.615L588.034 592.389L586.099 593.908C585.738 594.116 585.325 594.515 584.888 595.009C584.475 595.408 584.088 595.711 583.847 595.851C582.445 596.901 581.386 597.432 580.455 597.488C579.523 597.544 578.719 597.125 578.111 596.351C577.573 595.697 577.276 594.905 577.29 594.094C577.304 593.282 577.602 592.548 578.186 591.889C577.266 592.661 576.353 593.028 575.447 592.989C574.541 592.949 573.736 592.53 573.129 591.756C572.382 590.741 572.067 589.638 572.277 588.472C572.488 587.307 573.44 586.034 574.988 584.819C575.375 584.515 575.736 584.306 576.003 584.072C576.777 583.465 577.259 583.187 577.405 583.022L579.339 581.503L579.852 582.252L578.735 583.378L586.101 592.38ZM575.716 585.523C574.701 586.27 574.187 587.049 574.078 587.834C573.969 588.62 574.171 589.387 574.779 590.161C575.386 590.935 576 591.303 576.691 591.387C577.382 591.47 578.079 591.147 578.974 590.47C579.989 589.724 580.642 589.186 580.813 588.926L577.403 584.549C577.023 584.447 576.515 584.821 575.716 585.523ZM580.647 590.308L579.873 590.915C579.22 591.453 578.851 592.067 578.768 592.758C578.685 593.449 578.912 594.121 579.545 594.8C580.083 595.453 580.697 595.821 581.293 595.879C581.889 595.937 582.586 595.615 583.481 594.938C583.868 594.634 584.16 594.305 584.547 594.001L584.813 593.767L581.636 589.656C581.3 589.77 581.034 590.004 580.647 590.308Z" fill="black"/>
<g style="mix-blend-mode:overlay">
<circle cx="171.44" cy="124.395" r="2" fill="black"/>
</g>
<g style="mix-blend-mode:overlay">
<circle cx="575.939" cy="98.7654" r="2" fill="black"/>
</g>
</g>
</svg>
