<svg id="Layer_1" data-name="Layer 1" xmlns="http://www.w3.org/2000/svg" viewBox="0 0 242 188.07"><defs><style>.cls-1{fill:#fff;}</style></defs><title>Ibri</title><path class="cls-1" d="M40.35,169.33,20,170.05c-2.58.09-3.67-1.22-3.75-3.51,0-.22-5-143.73-5.14-146.58-.05-1.64.59-3.95,4.3-4.08L35,15.2Z"/><path class="cls-1" d="M148.36,74.68l3.17,90.77,19.49-.68c.39,0,.74-.53.74-1.73l-1.87-53.42s-.66-3.06,4.43-10.61c3-4.44,8.56-8.05,18-7.74,0,0,2.14.18,2.25-6.12.18-9.94,1.21-13.26-3.49-13.92a42.52,42.52,0,0,0-11.62.35c-4.24.8-8.21,3.3-9.92,4.28,0,0,2.37-2.82-5-2.57S148.36,74.68,148.36,74.68Z"/><path class="cls-1" d="M222,71.39l3.11,88.91s.17,1.9-2.81,2.31-17.72,1.11-17.72,1.11l-3-86.81S206.24,70.26,222,71.39Z"/><circle class="cls-1" cx="209.54" cy="52.92" r="14.68"/><path class="cls-1" d="M126.39,84.92c-7.61-6.17-18.8-9-28.93-8.66a40.53,40.53,0,0,0-25.14,10L69.8,14l-19.6.68c-3.7.13-4.35,2.44-4.29,4.08C46,21.6,51,165.1,51,165.32c.08,2.3,1.17,3.6,3.75,3.51l20.39-.71-.13-3.65a40.56,40.56,0,0,0,25.78,8.25c12.17-.43,23.87-5.23,31.46-14.45,7.37-9,10.81-22.17,10.35-35.3C142.1,107.56,136.85,93.4,126.39,84.92ZM107.46,146c-3.24,3.78-8.52,5-13.19,5.21-10.86.37-20.07-11.18-20.58-25.82s7.87-26.81,18.73-27.19c4.67-.17,10,.72,13.52,4.27,4.64,4.71,6.77,13.2,7.06,21.54S111.76,141,107.46,146Z"/><path class="cls-1" d="M230,28.22a7.13,7.13,0,0,1,1.39-.12,2.28,2.28,0,0,1,1.62.46,1.4,1.4,0,0,1,.44,1.06,1.48,1.48,0,0,1-1.06,1.43v0a1.4,1.4,0,0,1,.83,1.13,8.58,8.58,0,0,0,.43,1.54h-.75a6.89,6.89,0,0,1-.37-1.34c-.17-.77-.47-1.06-1.12-1.08h-.68v2.42H230Zm.73,2.55h.73c.78,0,1.27-.43,1.27-1.06s-.53-1-1.29-1.05a2.53,2.53,0,0,0-.71.07Z"/><path class="cls-1" d="M231.53,36a5.1,5.1,0,1,1,5.1-5.1A5.11,5.11,0,0,1,231.53,36Zm0-9.86a4.76,4.76,0,1,0,4.76,4.76A4.77,4.77,0,0,0,231.53,26.16Z"/></svg>
