<svg width="242" height="189" viewBox="0 0 242 189" fill="none" xmlns="http://www.w3.org/2000/svg">
<path d="M40.35 169.33L20 170.05C17.42 170.14 16.33 168.83 16.25 166.54C16.25 166.32 11.25 22.81 11.11 19.96C11.06 18.32 11.7 16.01 15.41 15.88L35 15.2L40.35 169.33Z" fill="#3A7189"/>
<path d="M148.36 74.68L151.53 165.45L171.02 164.77C171.41 164.77 171.76 164.24 171.76 163.04L169.89 109.62C169.89 109.62 169.23 106.56 174.32 99.01C177.32 94.57 182.88 90.96 192.32 91.27C192.32 91.27 194.46 91.45 194.57 85.15C194.75 75.21 195.78 71.89 191.08 71.23C187.209 70.8141 183.299 70.9319 179.46 71.58C175.22 72.38 171.25 74.88 169.54 75.86C169.54 75.86 171.91 73.04 164.54 73.29C157.17 73.54 148.36 74.68 148.36 74.68Z" fill="#3A7189"/>
<path d="M222 71.39L225.11 160.3C225.11 160.3 225.28 162.2 222.3 162.61C219.32 163.02 204.58 163.72 204.58 163.72L201.58 76.91C201.58 76.91 206.24 70.26 222 71.39Z" fill="#3A7189"/>
<path d="M209.54 67.6C217.648 67.6 224.22 61.0275 224.22 52.92C224.22 44.8125 217.648 38.24 209.54 38.24C201.432 38.24 194.86 44.8125 194.86 52.92C194.86 61.0275 201.432 67.6 209.54 67.6Z" fill="#3A7189"/>
<path d="M126.39 84.92C118.78 78.75 107.59 75.92 97.46 76.26C88.1819 76.6153 79.3072 80.1455 72.32 86.26L69.8 14L50.2 14.68C46.5 14.81 45.85 17.12 45.91 18.76C46 21.6 51 165.1 51 165.32C51.08 167.62 52.17 168.92 54.75 168.83L75.14 168.12L75.01 164.47C82.4051 170.091 91.5055 173.003 100.79 172.72C112.96 172.29 124.66 167.49 132.25 158.27C139.62 149.27 143.06 136.1 142.6 122.97C142.1 107.56 136.85 93.4 126.39 84.92ZM107.46 146C104.22 149.78 98.94 151 94.27 151.21C83.41 151.58 74.2 140.03 73.69 125.39C73.18 110.75 81.56 98.58 92.42 98.2C97.09 98.03 102.42 98.92 105.94 102.47C110.58 107.18 112.71 115.67 113 124.01C113.29 132.35 111.76 141 107.46 146Z" fill="#3A7189"/>
<path d="M230 28.22C230.458 28.1347 230.924 28.0945 231.39 28.1C231.969 28.041 232.548 28.2056 233.01 28.56C233.154 28.6956 233.268 28.8601 233.344 29.0428C233.419 29.2256 233.456 29.4223 233.45 29.62C233.452 29.9411 233.35 30.2542 233.159 30.5122C232.968 30.7701 232.698 30.9589 232.39 31.05C232.615 31.1488 232.811 31.3052 232.957 31.5036C233.102 31.702 233.193 31.9353 233.22 32.18C233.315 32.7056 233.459 33.2212 233.65 33.72H232.9C232.732 33.287 232.608 32.838 232.53 32.38C232.36 31.61 232.06 31.32 231.41 31.3H230.73V33.72H230V28.22ZM230.73 30.77H231.46C232.24 30.77 232.73 30.34 232.73 29.71C232.73 29.08 232.2 28.71 231.44 28.66C231.201 28.6497 230.962 28.6732 230.73 28.73V30.77Z" fill="#3A7189"/>
<path d="M231.53 36C230.521 36 229.535 35.7009 228.697 35.1405C227.858 34.5801 227.204 33.7836 226.818 32.8517C226.432 31.9198 226.331 30.8943 226.528 29.905C226.725 28.9157 227.21 28.007 227.924 27.2938C228.637 26.5805 229.546 26.0948 230.535 25.898C231.524 25.7012 232.55 25.8022 233.482 26.1882C234.414 26.5742 235.21 27.2279 235.77 28.0666C236.331 28.9053 236.63 29.8913 236.63 30.9C236.627 32.2518 236.089 33.5475 235.133 34.5033C234.177 35.4592 232.882 35.9974 231.53 36ZM231.53 26.14C230.589 26.14 229.668 26.4192 228.885 26.9422C228.103 27.4652 227.493 28.2086 227.132 29.0784C226.772 29.9482 226.678 30.9053 226.861 31.8286C227.045 32.752 227.498 33.6001 228.164 34.2658C228.83 34.9315 229.678 35.3849 230.601 35.5685C231.525 35.7522 232.482 35.6579 233.352 35.2977C234.221 34.9374 234.965 34.3273 235.488 33.5445C236.011 32.7617 236.29 31.8414 236.29 30.9C236.282 29.6419 235.777 28.4378 234.886 27.55C233.994 26.6622 232.788 26.1626 231.53 26.16V26.14Z" fill="#3A7189"/>
</svg>
