<?xml version="1.0" encoding="utf-8"?>
<!-- Generator: Adobe Illustrator 22.0.1, SVG Export Plug-In . SVG Version: 6.00 Build 0)  -->
<svg version="1.1" id="Layer_1" xmlns="http://www.w3.org/2000/svg" xmlns:xlink="http://www.w3.org/1999/xlink" x="0px" y="0px"
	 viewBox="0 0 240.9 240.9" style="enable-background:new 0 0 240.9 240.9;" xml:space="preserve">
<style type="text/css">
	.st0{fill:#3A7189;}
	.st1{fill:#FFFFFF;}
</style>
<path class="st0" d="M196.1,241H44.8c-24.9,0-45.3-20.4-45.3-45.3V45.3c0-24.9,20.4-45.3,45.3-45.3h151.3
	c24.9,0,45.3,20.4,45.3,45.3v150.4C241.5,220.6,221.1,241,196.1,241z"/>
<g>
	<title>Ibri-logo-black</title>
	<path class="st1" d="M55.8,181.4L39.5,182c-2.1,0.1-3-1-3.1-2.8c0-0.2-4-115.5-4.1-117.8c-0.1-1.3,0.5-3.2,3.5-3.3l15.7-0.6
		L55.8,181.4z"/>
	<path class="st1" d="M142.7,105.4l2.6,73l15.7-0.6c0.3,0,0.6-0.4,0.6-1.4l-1.5-42.9c0,0-0.6-2.5,3.5-8.5c2.4-3.5,6.9-6.5,14.5-6.2
		c0,0,1.7,0.2,1.8-4.9c0.2-8,1-10.7-2.8-11.2c-3.1-0.3-6.3-0.2-9.3,0.2c-3.4,0.6-6.6,2.7-8,3.5c0,0,1.9-2.3-4-2.1
		C149.8,104.5,142.7,105.4,142.7,105.4z"/>
	<path class="st1" d="M201.8,102.7l2.5,71.5c0,0,0.2,1.5-2.3,1.8c-2.4,0.3-14.2,0.9-14.2,0.9l-2.4-69.8
		C185.4,107.1,189.1,101.8,201.8,102.7z"/>
	<circle class="st1" cx="191.8" cy="87.8" r="11.8"/>
	<path class="st1" d="M125,113.6c-6.1-5-15.1-7.2-23.2-7c-7.5,0.3-14.6,3.1-20.2,8l-2.1-58l-15.8,0.6c-3,0.1-3.5,1.9-3.5,3.3
		c0.1,2.3,4.1,117.6,4.1,117.8c0.1,1.8,1,2.9,3.1,2.8l16.4-0.6l-0.1-2.9c5.9,4.5,13.3,6.8,20.7,6.7c9.8-0.3,19.2-4.2,25.3-11.6
		c5.9-7.2,8.7-17.8,8.4-28.4C137.6,131.8,133.4,120.4,125,113.6z M109.8,162.7c-2.6,3.1-6.8,4-10.6,4.2c-8.8,0.3-16.2-9-16.6-20.7
		c-0.4-11.7,6.3-21.5,15-21.9c3.8-0.2,8,0.6,10.9,3.5c3.7,3.8,5.5,10.6,5.7,17.3C114.5,151.7,113.3,158.7,109.8,162.7z"/>
	<path class="st1" d="M208.3,68c0.4-0.1,0.7-0.1,1.1-0.1c0.5-0.1,1,0.1,1.3,0.4c0.2,0.2,0.4,0.6,0.3,0.9c0,0.6-0.3,1-0.9,1.1l0,0
		c0.4,0.2,0.6,0.5,0.6,0.9c0.1,0.4,0.2,0.8,0.3,1.2h-0.6c-0.2-0.3-0.2-0.7-0.3-1c-0.2-0.6-0.4-0.9-0.9-0.9h-0.6v1.9h-0.4L208.3,68
		L208.3,68z M208.8,70.1h0.6c0.6,0,1-0.3,1-0.9s-0.4-0.8-1-0.8c-0.2,0-0.4,0-0.6,0.1V70.1z"/>
	<path class="st1" d="M209.5,74.3c-2.3,0-4.1-1.8-4.1-4.1c0-2.3,1.8-4.1,4.1-4.1s4.1,1.8,4.1,4.1C213.6,72.4,211.7,74.3,209.5,74.3z
		 M209.5,66.3c-2.1,0-3.9,1.7-3.9,3.9c0,2.2,1.7,3.9,3.9,3.9s3.9-1.7,3.9-3.9l0,0C213.3,68.1,211.6,66.4,209.5,66.3L209.5,66.3z"/>
</g>
</svg>
