<?xml version="1.0" encoding="utf-8"?>
<svg viewBox="139.637 187.036 118.24 119.14" xmlns="http://www.w3.org/2000/svg">
  <g transform="matrix(0.4897240102291107, 0, 0, 0.4897240102291107, 71.40084075927734, 95.79279327392578)" style="">
    <path class="st0" d="M 357.756 428.506 L 162.358 428.506 C 149.558 428.506 139.057 418.005 139.057 405.205 L 139.057 210.706 C 139.057 197.906 149.558 187.405 162.358 187.405 L 357.756 187.405 C 370.556 187.405 381.057 197.906 381.057 210.706 L 381.057 405.205 C 381.057 418.005 370.556 428.506 357.756 428.506 Z" style="fill: rgb(58, 113, 137);"/>
    <g transform="matrix(1, 0, 0, 1, 139.057358, 187.405167)">
      <title>Ibri-logo-black</title>
      <path class="st1" d="M56.3,181.5L40,182.1c-2.1,0.1-3-1-3.1-2.8c0-0.2-4-115.5-4.1-117.8c-0.1-1.3,0.5-3.2,3.5-3.3L52,57.6&#10;&#9;&#9;L56.3,181.5z" style="fill: rgb(255, 255, 255);"/>
      <path class="st1" d="M143.2,105.5l2.6,73l15.7-0.6c0.3,0,0.6-0.4,0.6-1.4l-1.5-42.9c0,0-0.6-2.5,3.5-8.5c2.4-3.5,6.9-6.5,14.5-6.2&#10;&#9;&#9;c0,0,1.7,0.2,1.8-4.9c0.2-8,1-10.7-2.8-11.2c-3.1-0.3-6.3-0.2-9.3,0.2c-3.4,0.6-6.6,2.7-8,3.5c0,0,1.9-2.3-4-2.1&#10;&#9;&#9;C150.3,104.6,143.2,105.5,143.2,105.5z" style="fill: rgb(255, 255, 255);"/>
      <path class="st1" d="M202.3,102.8l2.5,71.5c0,0,0.2,1.5-2.3,1.8c-2.4,0.3-14.2,0.9-14.2,0.9l-2.4-69.8&#10;&#9;&#9;C185.9,107.2,189.6,101.9,202.3,102.8z" style="fill: rgb(255, 255, 255);"/>
      <circle class="st1" cx="192.3" cy="87.9" r="11.8" style="fill: rgb(255, 255, 255);"/>
      <path class="st1" d="M125.5,113.7c-6.1-5-15.1-7.2-23.2-7c-7.5,0.3-14.6,3.1-20.2,8l-2.1-58l-15.8,0.6c-3,0.1-3.5,1.9-3.5,3.3&#10;&#9;&#9;c0.1,2.3,4.1,117.6,4.1,117.8c0.1,1.8,1,2.9,3.1,2.8l16.4-0.6l-0.1-2.9c5.9,4.5,13.3,6.8,20.7,6.7c9.8-0.3,19.2-4.2,25.3-11.6&#10;&#9;&#9;c5.9-7.2,8.7-17.8,8.4-28.4C138.1,131.9,133.9,120.5,125.5,113.7z M110.3,162.8c-2.6,3.1-6.8,4-10.6,4.2c-8.8,0.3-16.2-9-16.6-20.7&#10;&#9;&#9;c-0.4-11.7,6.3-21.5,15-21.9c3.8-0.2,8,0.6,10.9,3.5c3.7,3.8,5.5,10.6,5.7,17.3C115,151.8,113.8,158.8,110.3,162.8z" style="fill: rgb(255, 255, 255);"/>
      <path class="st1" d="M208.8,68.1c0.4-0.1,0.7-0.1,1.1-0.1c0.5-0.1,1,0.1,1.3,0.4c0.2,0.2,0.4,0.6,0.3,0.9c0,0.6-0.3,1-0.9,1.1l0,0&#10;&#9;&#9;c0.4,0.2,0.6,0.5,0.6,0.9c0.1,0.4,0.2,0.8,0.3,1.2h-0.6c-0.2-0.3-0.2-0.7-0.3-1c-0.2-0.6-0.4-0.9-0.9-0.9h-0.6v1.9h-0.4V68.1&#10;&#9;&#9;L208.8,68.1z M209.3,70.2h0.6c0.6,0,1-0.3,1-0.9s-0.4-0.8-1-0.8c-0.2,0-0.4,0-0.6,0.1V70.2z" style="fill: rgb(255, 255, 255);"/>
      <path class="st1" d="M210,74.4c-2.3,0-4.1-1.8-4.1-4.1c0-2.3,1.8-4.1,4.1-4.1c2.3,0,4.1,1.8,4.1,4.1&#10;&#9;&#9;C214.1,72.5,212.2,74.4,210,74.4z M210,66.4c-2.1,0-3.9,1.7-3.9,3.9c0,2.2,1.7,3.9,3.9,3.9c2.2,0,3.9-1.7,3.9-3.9l0,0&#10;&#9;&#9;C213.8,68.2,212.1,66.5,210,66.4L210,66.4z" style="fill: rgb(255, 255, 255);"/>
    </g>
  </g>
</svg>